<svg width="251" height="269" viewBox="0 0 251 269" fill="none" xmlns="http://www.w3.org/2000/svg">
<path d="M4.97805 0.219949C4.67948 0.324604 4.16766 0.887124 4.07627 1.22071C3.90566 1.83556 4.02752 2.32613 4.46013 2.784C4.77088 3.12413 5.08163 3.27457 5.46549 3.27457C6.22104 3.27457 6.92783 2.51582 6.92783 1.70474C6.92783 1.29266 6.78769 0.959074 6.47085 0.625487C6.04434 0.16108 5.5447 0.0302613 4.97805 0.219949Z" fill="black"/>
<path d="M35.5105 0.363817C35.0231 0.527341 34.5905 1.15527 34.5905 1.70471C34.5905 2.5812 35.4313 3.28762 36.2356 3.07831C36.7962 2.93441 37.2714 2.30648 37.2714 1.70471C37.2714 1.12257 36.8022 0.481554 36.2661 0.337653C35.937 0.24608 35.8456 0.252621 35.5105 0.363817Z" fill="black"/>
<path d="M66.0369 0.494599C65.6652 0.618877 65.3788 0.939383 65.2631 1.358C65.1778 1.67197 65.1778 1.73738 65.2631 2.05788C65.3301 2.30644 65.4276 2.4765 65.5921 2.63349C66.2562 3.2745 67.2799 2.96707 67.5297 2.05134C67.615 1.73738 67.615 1.67197 67.5297 1.358C67.4139 0.932842 67.1276 0.618877 66.7315 0.488058C66.3842 0.376862 66.3842 0.376862 66.0369 0.494599Z" fill="black"/>
<path d="M96.7704 0.560007C96.7399 0.573089 96.6364 0.599252 96.545 0.618875C96.3378 0.671203 96.0331 0.945922 95.9052 1.20102C95.7955 1.43649 95.7833 1.95323 95.8869 2.16908C96.0941 2.59424 96.4414 2.82971 96.8618 2.82971C97.465 2.82971 97.9098 2.35222 97.9098 1.70467C97.9098 1.12907 97.5564 0.677744 97.0141 0.57963C96.9166 0.560007 96.807 0.553466 96.7704 0.560007Z" fill="black"/>
<path d="M126.852 0.854359C126.06 1.37109 126.401 2.68582 127.327 2.68582C127.845 2.68582 128.241 2.26066 128.241 1.70468C128.241 1.1487 127.845 0.72354 127.327 0.72354C127.163 0.72354 126.974 0.775868 126.852 0.854359Z" fill="black"/>
<path d="M157.384 0.985216C156.867 1.3188 156.891 2.15604 157.421 2.45693C157.793 2.6597 158.25 2.52888 158.463 2.14296C158.889 1.3973 158.079 0.52735 157.384 0.985216Z" fill="black"/>
<path d="M187.984 1.04411C187.74 1.16184 187.618 1.3777 187.618 1.71128C187.618 1.97292 187.649 2.06449 187.789 2.20839C187.929 2.35884 188.008 2.39154 188.258 2.39154C188.508 2.39154 188.587 2.35884 188.727 2.20839C188.867 2.05795 188.898 1.97292 188.898 1.70474C188.898 1.4431 188.867 1.34499 188.74 1.20763C188.569 1.02448 188.197 0.945993 187.984 1.04411Z" fill="black"/>
<path d="M218.48 1.20117C218.163 1.37778 218.102 1.88143 218.364 2.13653C218.547 2.31313 218.931 2.30005 219.101 2.11036C219.284 1.92068 219.29 1.49552 219.12 1.31237C218.961 1.14231 218.669 1.08998 218.48 1.20117Z" fill="black"/>
<path d="M249.018 1.3121C248.945 1.3448 248.854 1.44946 248.823 1.54103C248.696 1.90078 249.006 2.23437 249.341 2.09701C249.658 1.96619 249.658 1.44291 249.341 1.3121C249.25 1.27285 249.177 1.24669 249.171 1.25323C249.165 1.25323 249.098 1.27939 249.018 1.3121Z" fill="black"/>
<path d="M19.9122 14.6951C19.1871 14.9044 18.5656 15.3492 18.133 15.964C16.7864 17.8805 17.5846 20.5884 19.7233 21.3668C20.2229 21.55 21.271 21.5303 21.7645 21.3341C24.0128 20.4511 24.6526 17.4161 22.977 15.6108C22.1727 14.7539 20.9663 14.3876 19.9122 14.6951ZM21.9351 15.2641C23.3913 16.036 23.9885 17.874 23.2878 19.4045C22.9222 20.2156 22.1605 20.8828 21.3989 21.0659C21.0029 21.1641 20.3082 21.1641 19.967 21.0659C19.181 20.8435 18.4742 20.2025 18.0965 19.3784C17.8649 18.8813 17.8649 18.8747 17.8649 18.0571C17.8649 17.2395 17.8649 17.2329 18.0965 16.7358C18.3706 16.1406 18.8337 15.6173 19.3455 15.323C19.8452 15.0352 20.0828 14.9829 20.8323 15.009C21.4416 15.0221 21.5147 15.0417 21.9351 15.2641Z" fill="black"/>
<path d="M50.274 15.0743C49.7561 15.2574 49.3966 15.5125 48.9883 15.99C48.2815 16.8142 48.0622 17.9523 48.3912 19.0185C48.5679 19.5679 48.6837 19.7838 49.0554 20.2024C49.4209 20.621 49.75 20.8434 50.2679 21.0331C50.993 21.2882 51.7729 21.2293 52.4919 20.8565C52.8331 20.6799 53.418 20.1043 53.6495 19.7053C54.0761 18.9858 54.1979 17.9981 53.9603 17.1674C53.8019 16.618 53.6617 16.3563 53.2779 15.9181C52.4858 15.0154 51.3524 14.6949 50.274 15.0743ZM51.8033 15.3425C52.827 15.6303 53.5581 16.4937 53.7409 17.6383C54.0151 19.3717 52.6015 21.0004 50.9503 20.8499C49.4148 20.7126 48.2937 19.1166 48.5984 17.5206C48.9091 15.9377 50.3654 14.9435 51.8033 15.3425Z" fill="black"/>
<path d="M80.9588 15.3359C80.5323 15.4667 80.1728 15.6891 79.8316 16.0358C78.7775 17.102 78.7349 18.8288 79.728 19.9669C81.1355 21.5825 83.6337 20.8957 84.1638 18.7437C84.3892 17.8411 84.1516 16.86 83.5301 16.147C82.8782 15.3948 81.8484 15.0743 80.9588 15.3359ZM82.6344 15.8003C83.0975 16.0423 83.5057 16.4806 83.7373 16.9777C83.8957 17.3374 83.914 17.429 83.914 18.0569C83.914 18.6849 83.8957 18.7764 83.7373 19.1362C83.5057 19.6333 83.0975 20.0716 82.6344 20.3201C82.2993 20.4902 82.214 20.5098 81.6291 20.5098C81.0441 20.5098 80.9588 20.4902 80.6237 20.3201C80.1606 20.0716 79.7524 19.6333 79.527 19.1427C79.3015 18.6522 79.2467 17.8738 79.3929 17.3309C79.594 16.6049 80.2338 15.8984 80.8979 15.6695C81.0746 15.6041 81.3671 15.5779 81.7266 15.591C82.1896 15.6041 82.3298 15.6368 82.6344 15.8003Z" fill="black"/>
<path d="M111.412 15.6959C110.967 15.8529 110.705 16.0295 110.401 16.3827C109.785 17.1022 109.633 18.0441 109.974 19.0187C110.065 19.2934 110.206 19.5093 110.474 19.7971C111.869 21.2949 114.209 20.3661 114.392 18.2469C114.544 16.5331 112.954 15.1726 111.412 15.6959ZM112.74 15.9706C113.088 16.0884 113.21 16.1734 113.532 16.5135C113.849 16.8602 113.929 16.991 114.038 17.3638C114.111 17.6124 114.166 17.9198 114.166 18.0572C114.166 18.1945 114.111 18.502 114.038 18.7505C113.929 19.1234 113.849 19.2542 113.532 19.6008C113.21 19.941 113.088 20.026 112.74 20.1437C112.509 20.2222 112.222 20.2811 112.094 20.2811C111.967 20.2811 111.68 20.2222 111.449 20.1437C111.101 20.026 110.979 19.941 110.657 19.6008C110.34 19.2542 110.26 19.1234 110.151 18.7505C110.078 18.502 110.023 18.1945 110.023 18.0572C110.023 17.9198 110.078 17.6124 110.151 17.3638C110.26 16.991 110.34 16.8602 110.657 16.5135C110.967 16.1799 111.107 16.0818 111.43 15.9706C111.936 15.8006 112.229 15.8006 112.74 15.9706Z" fill="black"/>
<path d="M142.103 15.9574C141.5 16.134 141.012 16.5527 140.75 17.1348C140.61 17.4422 140.586 17.5861 140.586 18.0571C140.58 18.5346 140.604 18.6654 140.75 18.9793C140.945 19.4176 141.347 19.8362 141.756 20.0324C141.975 20.1436 142.158 20.1763 142.56 20.1763C142.962 20.1763 143.145 20.1436 143.364 20.0324C143.772 19.8362 144.175 19.4176 144.37 18.9793C144.516 18.6654 144.54 18.528 144.54 18.0571C144.54 17.5861 144.516 17.4488 144.37 17.1348C144.175 16.6966 143.766 16.2714 143.364 16.0817C143.054 15.9378 142.402 15.8724 142.103 15.9574ZM143.261 16.3172C143.705 16.5396 143.931 16.7685 144.138 17.2198C144.491 17.972 144.364 18.7962 143.809 19.398C142.688 20.595 140.793 19.7512 140.793 18.0571C140.793 17.3049 141.146 16.7031 141.78 16.363C142.267 16.1013 142.798 16.0817 143.261 16.3172Z" fill="black"/>
<path d="M172.599 16.2844C172.105 16.4544 171.734 16.7815 171.514 17.2328C171.38 17.5075 171.35 17.6514 171.35 18.057C171.35 18.4821 171.374 18.5933 171.533 18.8942C171.868 19.5483 172.343 19.8557 173.025 19.8557C173.72 19.8557 174.214 19.5352 174.537 18.8746C174.671 18.6064 174.701 18.456 174.701 18.057C174.701 17.6318 174.677 17.5206 174.518 17.2197C174.323 16.8338 174.11 16.6179 173.732 16.4086C173.464 16.2647 172.849 16.1928 172.599 16.2844ZM173.69 16.6179C174.604 17.1151 174.805 18.4167 174.086 19.1951C173.781 19.5156 173.464 19.6529 173.025 19.6529C172.587 19.6529 172.27 19.5156 171.965 19.1951C171.38 18.5606 171.38 17.5533 171.965 16.9188C172.422 16.4348 173.129 16.3105 173.69 16.6179Z" fill="black"/>
<path d="M203.058 16.6376C202.711 16.775 202.467 16.9908 202.291 17.3244C202.15 17.573 202.12 17.7103 202.12 18.0635C202.12 18.4298 202.15 18.541 202.303 18.8157C202.419 19.012 202.601 19.2082 202.784 19.3325C203.046 19.5025 203.144 19.5287 203.497 19.5221C203.844 19.5221 203.954 19.4894 204.198 19.3259C204.381 19.2082 204.563 19.012 204.673 18.8157C204.825 18.5541 204.856 18.4364 204.856 18.0635C204.862 17.6841 204.838 17.5795 204.679 17.2982C204.338 16.7095 203.613 16.4152 203.058 16.6376ZM204.027 16.8731C204.965 17.3898 204.929 18.8354 203.966 19.2671C203.54 19.4567 202.979 19.3521 202.65 19.0185C202.175 18.5475 202.15 17.6645 202.595 17.1478C202.924 16.7684 203.595 16.6376 204.027 16.8731Z" fill="black"/>
<path d="M233.609 16.9517C233.152 17.0956 232.799 17.73 232.89 18.2468C233.073 19.2998 234.358 19.568 234.882 18.6588C235.175 18.1486 235.01 17.3899 234.541 17.0759C234.297 16.9189 233.877 16.8601 233.609 16.9517ZM234.492 17.2198C234.876 17.4749 235.016 18.0178 234.809 18.4757C234.511 19.1429 233.767 19.2868 233.286 18.77C232.92 18.371 232.92 17.7366 233.292 17.3441C233.615 16.9909 234.078 16.9451 234.492 17.2198Z" fill="black"/>
<path d="M4.87439 32.4339C4.01527 32.761 3.55829 33.4543 3.55219 34.4093C3.5461 35.2596 3.94824 35.9399 4.66723 36.2996C5.36793 36.6528 6.2758 36.4762 6.83637 35.881C7.56754 35.0896 7.56754 33.729 6.83637 32.9376C6.33673 32.4078 5.50198 32.1919 4.87439 32.4339Z" fill="black"/>
<path d="M35.3216 32.6432C34.6758 32.8787 34.1639 33.6636 34.1639 34.4093C34.1639 35.1746 34.7184 35.9922 35.3765 36.2015C36.0833 36.4239 36.6499 36.2735 37.1556 35.724C37.4237 35.4428 37.5273 35.2727 37.6004 35.0045C37.8076 34.2458 37.6675 33.6375 37.1556 33.0946C36.6377 32.532 36.0284 32.3816 35.3216 32.6432Z" fill="black"/>
<path d="M65.7871 32.8462C64.5075 33.4676 64.4953 35.3121 65.7566 35.9531C66.7681 36.4699 67.9745 35.6261 67.9806 34.4095C67.9806 33.4937 67.2494 32.7088 66.3964 32.7088C66.1892 32.7088 65.9577 32.7612 65.7871 32.8462Z" fill="black"/>
<path d="M96.2829 33.0293C95.3872 33.4676 95.1801 34.7758 95.8929 35.5018C96.7886 36.411 98.2632 35.7308 98.2632 34.4095C98.2632 34.0236 98.1474 33.6965 97.9098 33.4153C97.6173 33.0686 97.2883 32.9051 96.8617 32.9051C96.6668 32.9051 96.423 32.9574 96.2829 33.0293Z" fill="black"/>
<path d="M126.791 33.2058C126.517 33.3562 126.182 33.7945 126.133 34.0627C126.029 34.671 126.218 35.1812 126.669 35.5344C126.84 35.6587 126.95 35.6848 127.327 35.6848C127.839 35.6848 128.04 35.5802 128.351 35.1485C128.497 34.9391 128.515 34.8541 128.515 34.4093C128.515 33.9645 128.497 33.8795 128.351 33.6702C128.065 33.2712 127.833 33.1404 127.388 33.1142C127.108 33.1011 126.931 33.1273 126.791 33.2058Z" fill="black"/>
<path d="M157.701 33.2648C157.671 33.2779 157.567 33.304 157.476 33.3236C157.269 33.376 156.964 33.6507 156.836 33.9058C156.726 34.1413 156.714 34.658 156.818 34.8739C157.025 35.299 157.372 35.5345 157.793 35.5345C158.396 35.5345 158.841 35.057 158.841 34.4094C158.841 33.8338 158.487 33.3825 157.945 33.2844C157.848 33.2648 157.738 33.2582 157.701 33.2648Z" fill="black"/>
<path d="M188.057 33.4872C187.966 33.5068 187.795 33.605 187.679 33.7096C187.253 34.0759 187.271 34.7562 187.722 35.1486C188.197 35.5542 188.91 35.3187 189.099 34.6842C189.306 34.0105 188.715 33.3368 188.057 33.4872Z" fill="black"/>
<path d="M218.419 33.7357C217.84 34.0562 217.913 34.9327 218.541 35.1355C218.864 35.2402 219.193 35.0701 219.357 34.7103C219.461 34.4749 219.467 34.4291 219.388 34.1936C219.235 33.7292 218.803 33.5264 218.419 33.7357Z" fill="black"/>
<path d="M248.945 33.9058C248.629 34.0824 248.568 34.5861 248.83 34.8411C249.012 35.0178 249.396 35.0047 249.567 34.815C249.75 34.6253 249.756 34.2001 249.585 34.017C249.427 33.8469 249.134 33.7946 248.945 33.9058Z" fill="black"/>
<path d="M19.8147 46.4119C18.3645 46.7521 17.2617 47.8248 16.7498 49.3815C16.6036 49.8263 16.5853 49.9702 16.5853 50.7617C16.5853 51.5596 16.6036 51.697 16.7559 52.168C17.2007 53.5219 18.1025 54.4965 19.3516 54.974C19.839 55.1637 19.9304 55.1768 20.6982 55.1768C21.4293 55.1768 21.5695 55.1572 21.9838 55.0002C22.2397 54.9021 22.6114 54.7189 22.8186 54.5946C24.6648 53.4304 25.3655 50.8794 24.4089 48.7798C23.5924 46.981 21.6487 45.9802 19.8147 46.4119ZM21.5025 46.8698C23.1537 47.2426 24.4149 48.9302 24.4149 50.7617C24.4149 52.9463 22.7333 54.7516 20.6982 54.7516C18.657 54.7516 16.9814 52.9529 16.9814 50.7617C16.9814 49.5647 17.548 48.3153 18.4072 47.622C19.315 46.8829 20.4057 46.6147 21.5025 46.8698Z" fill="black"/>
<path d="M50.402 46.811C48.9153 47.1184 47.7211 48.4659 47.4591 50.1273C47.3677 50.716 47.3677 50.8075 47.4591 51.3962C47.8368 53.7902 49.9694 55.2685 52.1568 54.6536C53.1439 54.3789 54.0579 53.5613 54.5514 52.5147C55.4471 50.6178 54.6611 48.1192 52.8575 47.1708C52.0471 46.7391 51.2733 46.6279 50.402 46.811ZM51.9801 47.2623C53.0708 47.5698 53.9787 48.4659 54.3564 49.6171C54.5209 50.1077 54.5575 51.1607 54.4235 51.6513C53.9908 53.2669 52.6869 54.3593 51.1941 54.3593C49.3174 54.3593 47.8124 52.7633 47.8124 50.7617C47.8124 49.1396 48.8544 47.6875 50.3167 47.2689C50.7554 47.1446 51.5414 47.1381 51.9801 47.2623Z" fill="black"/>
<path d="M80.7822 47.2624C80.2887 47.4128 79.9962 47.5698 79.5758 47.9099C78.3571 48.9041 77.9306 50.7552 78.5765 52.2923C78.9055 53.0838 79.7281 53.8818 80.5202 54.1761C81.0686 54.3789 82.1592 54.392 82.6589 54.2023C83.3961 53.9276 84.0298 53.3978 84.4563 52.7175C85.0535 51.7429 85.1448 50.3431 84.6818 49.2312C84.3588 48.4593 83.6033 47.7137 82.8112 47.3866C82.2811 47.1642 81.3001 47.1054 80.7822 47.2624ZM82.927 47.8707C83.5789 48.2173 84.042 48.721 84.3588 49.4339C84.5843 49.9376 84.5843 49.9507 84.5843 50.7683V51.5859L84.3284 52.1484C83.6886 53.5351 82.3237 54.235 80.9345 53.9014C79.9109 53.6529 78.936 52.6063 78.7045 51.5074C78.6191 51.1019 78.6191 50.4216 78.7045 50.0161C78.9238 48.963 79.7707 48.008 80.8005 47.6417C80.965 47.5894 81.2818 47.5632 81.7327 47.5763C82.3908 47.5959 82.4334 47.609 82.927 47.8707Z" fill="black"/>
<path d="M111.412 47.6613C110.894 47.7921 110.468 48.0472 110.047 48.4855C109.462 49.0872 109.17 49.774 109.133 50.644C109.097 51.5532 109.42 52.3904 110.059 53.051C111.229 54.2611 112.966 54.2546 114.142 53.038C115.342 51.8017 115.379 49.8591 114.227 48.577C113.843 48.1453 113.356 47.8248 112.887 47.6875C112.491 47.5697 111.814 47.5567 111.412 47.6613ZM113.216 48.1977C113.886 48.5313 114.312 49.048 114.605 49.8656C114.745 50.2581 114.769 51.1346 114.648 51.5335C114.264 52.809 113.319 53.5743 112.101 53.5809C111.04 53.5939 110.157 52.9922 109.706 51.9653C109.091 50.5459 109.657 48.8583 110.979 48.1977C111.674 47.8445 112.515 47.8445 113.216 48.1977Z" fill="black"/>
<path d="M141.762 48.1387C141.207 48.3283 140.622 48.832 140.324 49.388C139.891 50.1663 139.903 51.3633 140.342 52.1679C140.507 52.4753 140.976 52.9724 141.28 53.1686C141.993 53.6134 143.127 53.6134 143.84 53.1686C144.144 52.9724 144.546 52.5473 144.753 52.2006C145.217 51.4091 145.241 50.1925 144.802 49.388C144.619 49.0609 144.156 48.5573 143.87 48.3807C143.291 48.0144 142.42 47.9163 141.762 48.1387ZM143.517 48.5377C144.01 48.7797 144.412 49.2179 144.65 49.7674C144.814 50.1533 144.839 50.2775 144.839 50.7616C144.839 51.2456 144.814 51.3699 144.65 51.7558C144.406 52.3183 144.01 52.7435 143.486 53.0051C143.127 53.1817 143.011 53.2079 142.56 53.2079C142.109 53.2079 141.993 53.1817 141.634 53.0051C141.11 52.7435 140.714 52.3183 140.47 51.7558C140.306 51.3699 140.281 51.2456 140.281 50.7616C140.281 50.2775 140.306 50.1533 140.47 49.7674C140.775 49.0675 141.378 48.5246 142.054 48.3414C142.444 48.2368 143.096 48.3218 143.517 48.5377Z" fill="black"/>
<path d="M172.471 48.492C171.837 48.6882 171.313 49.1722 171.027 49.8394C170.893 50.1403 170.862 50.3038 170.862 50.7617C170.862 51.2588 170.881 51.3634 171.057 51.7494C171.295 52.2661 171.679 52.6651 172.16 52.9071C172.654 53.1557 173.391 53.1557 173.891 52.9071C174.366 52.6716 174.756 52.2661 174.987 51.7559C175.158 51.3831 175.182 51.2653 175.189 50.7682C175.189 50.258 175.17 50.1599 174.994 49.774C174.628 48.9825 173.958 48.492 173.166 48.4331C172.922 48.42 172.636 48.4462 172.471 48.492ZM173.83 48.8779C174.537 49.2246 174.945 49.9179 174.945 50.7617C174.945 51.1541 174.914 51.3242 174.786 51.6185C174.451 52.3838 173.811 52.8221 173.025 52.8221C172.66 52.8221 172.501 52.7894 172.227 52.652C171.368 52.2203 170.905 51.1738 171.155 50.2319C171.502 48.9629 172.733 48.3415 173.83 48.8779Z" fill="black"/>
<path d="M202.821 48.9761C202.449 49.12 201.955 49.6564 201.827 50.0684C201.59 50.8141 201.742 51.5794 202.236 52.1092C202.936 52.8614 204.045 52.8614 204.746 52.1092C205.106 51.7233 205.258 51.3178 205.258 50.7618C205.258 50.2058 205.106 49.8003 204.746 49.4143C204.539 49.1985 204.332 49.0481 204.137 48.9761C203.765 48.8387 203.186 48.8387 202.821 48.9761ZM204.192 49.2443C204.478 49.4013 204.77 49.7218 204.929 50.0423C205.093 50.3824 205.087 51.1673 204.911 51.5205C204.393 52.5671 203.095 52.7698 202.358 51.9261C202.029 51.5532 201.937 51.3047 201.937 50.7618C201.937 50.2189 202.029 49.9703 202.358 49.5975C202.546 49.3751 202.784 49.2181 203.064 49.12C203.314 49.0284 203.93 49.1004 204.192 49.2443Z" fill="black"/>
<path d="M233.603 49.3163C233.28 49.4079 232.939 49.6891 232.762 50.0162C232.622 50.2713 232.592 50.4086 232.592 50.7619C232.585 51.1347 232.61 51.2393 232.768 51.5206C232.884 51.7168 233.067 51.9131 233.25 52.0373C233.505 52.2009 233.609 52.2336 233.956 52.2336C234.304 52.2336 234.407 52.2009 234.663 52.0373C234.846 51.9131 235.029 51.7168 235.145 51.5206C235.297 51.2459 235.327 51.1347 235.327 50.7619C235.327 50.389 235.297 50.2778 235.145 50.0031C234.822 49.4471 234.182 49.1593 233.603 49.3163ZM234.432 49.5518C235.071 49.8396 235.352 50.631 235.059 51.3178C234.621 52.3448 233.237 52.3186 232.829 51.272C232.652 50.8142 232.75 50.219 233.061 49.8527C233.378 49.4864 233.981 49.3556 234.432 49.5518Z" fill="black"/>
<path d="M4.87446 64.5957C3.90566 64.877 3.25979 65.6358 3.07699 66.7216C2.94295 67.4803 3.21714 68.3699 3.75942 68.9455C4.29561 69.5276 5.12427 69.822 5.83107 69.6781C6.91564 69.4622 7.6529 68.6707 7.85398 67.5065C7.98803 66.7543 7.71384 65.8581 7.18374 65.2891C6.84252 64.9228 6.53178 64.7331 6.03214 64.5957C5.60563 64.478 5.29488 64.478 4.87446 64.5957Z" fill="black"/>
<path d="M35.218 64.8771C34.6087 65.1126 34.1761 65.5378 33.9019 66.1788C33.7922 66.4339 33.7678 66.6105 33.7678 67.1141C33.7678 67.6505 33.7922 67.7879 33.9323 68.1084C34.1395 68.5859 34.5599 69.0372 35.0047 69.2596C35.3033 69.41 35.4312 69.4362 35.9309 69.4362C36.4305 69.4362 36.5585 69.41 36.857 69.2596C37.3018 69.0372 37.7222 68.5859 37.9294 68.1084C38.0695 67.7879 38.0939 67.6505 38.0939 67.1141C38.0939 66.5778 38.0695 66.4404 37.9294 66.1199C37.7222 65.6424 37.2957 65.1846 36.857 64.9687C36.3939 64.7398 35.675 64.7005 35.218 64.8771Z" fill="black"/>
<path d="M65.9211 65.0538C65.4702 65.1912 65.2996 65.2959 64.9767 65.6491C64.2272 66.4601 64.2394 67.788 65.001 68.6121C66.244 69.9465 68.3644 69.0046 68.3644 67.1142C68.3644 65.7406 67.1275 64.6941 65.9211 65.0538Z" fill="black"/>
<path d="M96.2952 65.3219C95.8565 65.4658 95.3203 66.0479 95.1923 66.5189C94.9791 67.2907 95.1253 67.8859 95.6432 68.4354C95.9052 68.7101 96.0758 68.8344 96.3196 68.9063C97.0142 69.1287 97.5626 68.9848 98.0805 68.4354C98.3608 68.141 98.4582 67.984 98.5314 67.7093C98.7446 66.9375 98.5984 66.3423 98.0805 65.7928C97.5626 65.2499 96.9837 65.0929 96.2952 65.3219Z" fill="black"/>
<path d="M126.748 65.577C126.432 65.7013 125.956 66.2311 125.871 66.5647C125.694 67.2384 125.822 67.8075 126.255 68.2653C126.681 68.7297 127.212 68.8671 127.833 68.6774C128.162 68.5793 128.698 68.0102 128.784 67.6701C128.96 66.9833 128.832 66.4208 128.4 65.9629C128.058 65.5901 127.796 65.4789 127.297 65.4789C127.132 65.4854 126.883 65.5247 126.748 65.577Z" fill="black"/>
<path d="M157.372 65.7733C157.025 65.891 156.665 66.2704 156.544 66.6432C156.428 67.0161 156.428 67.2188 156.544 67.5786C156.769 68.2523 157.427 68.6447 158.073 68.4943C158.652 68.3504 159.133 67.729 159.133 67.1076C159.133 66.5516 158.701 65.9303 158.195 65.7733C157.835 65.6555 157.726 65.6555 157.372 65.7733Z" fill="black"/>
<path d="M187.801 66.0282C187.704 66.0805 187.545 66.1983 187.454 66.3029C186.796 67.0617 187.296 68.2914 188.252 68.2914C189.221 68.2914 189.721 67.0617 189.063 66.3029C188.752 65.9497 188.209 65.832 187.801 66.0282Z" fill="black"/>
<path d="M218.425 66.2181C218.309 66.2573 218.139 66.4078 218.035 66.5386C217.657 67.0488 217.877 67.8141 218.468 68.0169C219.26 68.2916 219.93 67.2647 219.43 66.5582C219.339 66.434 219.217 66.3031 219.162 66.2704C218.967 66.1592 218.632 66.1331 218.425 66.2181Z" fill="black"/>
<path d="M248.915 66.4535C248.671 66.5713 248.549 66.7871 248.549 67.1207C248.549 67.3823 248.58 67.4739 248.72 67.6178C248.86 67.7682 248.939 67.8009 249.189 67.8009C249.439 67.8009 249.518 67.7682 249.658 67.6178C249.798 67.4674 249.829 67.3823 249.829 67.1142C249.829 66.8525 249.798 66.7544 249.67 66.617C249.5 66.4339 249.128 66.3554 248.915 66.4535Z" fill="black"/>
<path d="M19.8452 78.0767C19.3821 78.1748 18.7789 78.4103 18.2914 78.6784C17.8405 78.927 17.6334 79.1036 17.1337 79.6399C16.6341 80.1763 16.4696 80.3987 16.238 80.8827C15.7628 81.877 15.6714 82.2825 15.6714 83.4664C15.6714 84.6438 15.7628 85.0493 16.238 86.0501C16.4696 86.5341 16.6341 86.7565 17.1337 87.2994C17.6395 87.8423 17.8344 88.0058 18.2914 88.2544C19.2237 88.7711 19.6014 88.8627 20.6982 88.8627C21.7949 88.8627 22.1727 88.7646 23.105 88.2544C23.5558 88.0058 23.763 87.8357 24.2626 87.2928C24.7684 86.7565 24.9268 86.5341 25.1583 86.0501C25.6336 85.0493 25.725 84.6438 25.725 83.4664C25.725 82.289 25.6397 81.8835 25.1583 80.8827C24.9268 80.3922 24.7745 80.1828 24.2687 79.6399C23.763 79.1036 23.5558 78.927 23.105 78.6784C22.2215 78.1944 21.8437 78.0897 20.8505 78.0701C20.3813 78.057 19.9305 78.0636 19.8452 78.0767ZM21.7767 78.7308C23.0806 79.0447 24.2687 80.1044 24.8415 81.4649C25.1157 82.1059 25.2254 82.6815 25.2254 83.4664C25.2254 84.2513 25.1157 84.8269 24.8415 85.4679C24.2626 86.835 23.105 87.8684 21.7462 88.2217C21.21 88.359 20.1864 88.359 19.6502 88.2217C18.2914 87.8684 17.1337 86.835 16.5549 85.4679C16.2807 84.8269 16.171 84.2513 16.171 83.4664C16.171 82.3741 16.433 81.491 17.0058 80.6342C18.0843 79.0055 19.9122 78.2729 21.7767 78.7308Z" fill="black"/>
<path d="M50.0364 78.6851C48.4888 79.1364 47.325 80.3007 46.7949 81.9294C46.6365 82.4134 46.6243 82.5246 46.6243 83.4665C46.6243 84.4084 46.6365 84.5196 46.7949 85.0036C47.0386 85.7558 47.4042 86.3707 47.9282 86.9397C48.4583 87.5023 49.031 87.8947 49.7317 88.1563C50.1826 88.3264 50.2862 88.3395 51.1636 88.3395C52.041 88.3395 52.1446 88.3264 52.5955 88.1563C53.2962 87.8947 53.869 87.5023 54.3991 86.9397C54.9231 86.3707 55.2886 85.7558 55.5324 85.0036C55.6908 84.5196 55.703 84.4084 55.703 83.4665C55.703 82.5246 55.6908 82.4134 55.5324 81.9294C55.2886 81.1772 54.9231 80.5623 54.3991 79.9933C53.869 79.4242 53.2901 79.0383 52.5955 78.7832C51.9313 78.5412 50.6945 78.4954 50.0364 78.6851ZM52.0227 79.1495C52.7356 79.2999 53.6252 79.8297 54.131 80.3988C54.6245 80.9679 55.0266 81.7659 55.1912 82.5377C55.2886 82.9955 55.2704 84.0356 55.1607 84.5196C54.7951 86.0698 53.6069 87.3518 52.169 87.7508C51.6937 87.8816 50.6396 87.8816 50.1583 87.7508C48.7142 87.3518 47.5443 86.096 47.1726 84.5457C47.0508 84.0225 47.0508 82.8974 47.1726 82.3872C47.7393 80.0783 49.8414 78.6785 52.0227 79.1495Z" fill="black"/>
<path d="M81.1417 79.0906C79.0944 79.3392 77.5345 81.2164 77.5345 83.4272C77.5345 85.1737 78.3998 86.6781 79.8316 87.4238C80.447 87.7377 80.9528 87.862 81.6352 87.862C83.9201 87.862 85.7237 85.9259 85.7237 83.473C85.7298 80.8239 83.5972 78.7897 81.1417 79.0906ZM82.7624 79.712C83.7008 80.0456 84.4989 80.7912 84.9072 81.707C85.1936 82.3414 85.2971 82.832 85.291 83.4861C85.285 84.5719 84.9255 85.4942 84.2187 86.2464C83.518 87.0051 82.6588 87.3911 81.6474 87.3976C80.2399 87.4107 78.942 86.5604 78.351 85.226C78.0646 84.5915 77.9672 84.1467 77.9672 83.4599C77.955 81.4257 79.4234 79.712 81.3244 79.5288C81.6657 79.4961 82.4395 79.5943 82.7624 79.712Z" fill="black"/>
<path d="M111.424 79.6399C109.499 80.0193 108.189 82.0469 108.53 84.1335C108.871 86.2462 110.748 87.6656 112.722 87.2928C114.806 86.9003 116.128 84.6829 115.598 82.4721C115.129 80.536 113.277 79.2736 111.424 79.6399ZM112.954 80.1043C114.044 80.451 114.903 81.3732 115.226 82.5441C115.348 82.9954 115.354 83.8457 115.232 84.3494C114.946 85.5136 114.063 86.4817 112.954 86.8284C112.533 86.9592 111.741 86.9657 111.272 86.8349C110.169 86.5275 109.243 85.5333 108.957 84.3494C108.762 83.5317 108.871 82.5702 109.249 81.8049C109.627 81.0266 110.449 80.3332 111.248 80.1043C111.692 79.9735 112.539 79.9735 112.954 80.1043Z" fill="black"/>
<path d="M141.92 80.1632C141.414 80.2809 141.067 80.4575 140.659 80.7911C138.648 82.4394 139.178 85.7818 141.591 86.6779C142.14 86.8807 142.987 86.8807 143.535 86.6779C145.399 85.9911 146.24 83.7541 145.332 81.9031C144.68 80.5752 143.255 79.8492 141.92 80.1632ZM143.547 80.6472C144.686 81.1247 145.418 82.3282 145.351 83.6168C145.253 85.3043 143.961 86.5602 142.42 86.4621C140.848 86.3574 139.678 84.9708 139.769 83.3159C139.842 82.0404 140.555 81.0331 141.695 80.608C142.225 80.4052 143.011 80.4248 143.547 80.6472Z" fill="black"/>
<path d="M172.447 80.6799C171.929 80.8172 171.575 81.0265 171.198 81.4125C170.131 82.5048 170.083 84.2643 171.088 85.4024C171.764 86.1677 172.678 86.4817 173.592 86.2527C174.134 86.1154 174.439 85.9388 174.841 85.5398C175.536 84.8268 175.816 83.8915 175.621 82.9038C175.505 82.2955 175.341 81.9554 174.939 81.504C174.537 81.0527 174.134 80.8107 173.592 80.6864C173.099 80.5752 172.855 80.5687 172.447 80.6799ZM174.025 81.1639C174.531 81.419 174.933 81.8507 175.176 82.4067C175.353 82.8057 175.371 82.9038 175.371 83.4663C175.371 84.0288 175.353 84.1269 175.176 84.5259C174.933 85.0819 174.531 85.5136 174.013 85.7753C173.641 85.9649 173.55 85.9846 173.026 85.9846C172.502 85.9846 172.41 85.9649 172.038 85.7753C171.521 85.5136 171.118 85.0819 170.875 84.5259C170.698 84.1269 170.68 84.0288 170.68 83.4663C170.68 82.9038 170.698 82.8057 170.875 82.4067C171.185 81.7003 171.783 81.1639 172.459 80.9808C172.891 80.863 173.592 80.948 174.025 81.1639Z" fill="black"/>
<path d="M203.016 81.1771C202.388 81.321 201.785 81.8574 201.492 82.5377C201.364 82.8451 201.334 83.0086 201.334 83.4665C201.328 83.9701 201.346 84.0682 201.523 84.4541C201.76 84.9709 202.144 85.3699 202.626 85.6119C202.918 85.7558 203.058 85.7885 203.491 85.7885C203.924 85.7885 204.064 85.7558 204.356 85.6119C204.837 85.3699 205.221 84.9709 205.459 84.4541C205.63 84.0748 205.654 83.9636 205.654 83.4665C205.654 82.9694 205.63 82.8582 205.459 82.4788C205.002 81.4911 203.997 80.9547 203.016 81.1771ZM204.295 81.5827C205.002 81.9293 205.41 82.6227 205.41 83.4665C205.41 83.8589 205.38 84.029 205.252 84.3233C204.917 85.0886 204.277 85.5269 203.491 85.5269C203.125 85.5269 202.967 85.4942 202.693 85.3568C201.834 84.9251 201.371 83.8785 201.62 82.9366C201.968 81.6677 203.198 81.0463 204.295 81.5827Z" fill="black"/>
<path d="M233.53 81.6938C233.036 81.8639 232.665 82.191 232.445 82.6423C232.311 82.917 232.281 83.0609 232.281 83.4664C232.281 83.8916 232.305 84.0028 232.464 84.3037C232.799 84.9578 233.274 85.2652 233.956 85.2652C234.651 85.2652 235.145 84.9447 235.467 84.2841C235.601 84.0159 235.632 83.8654 235.632 83.4664C235.632 83.0413 235.608 82.9301 235.449 82.6292C235.254 82.2433 235.041 82.0274 234.663 81.8181C234.395 81.6742 233.78 81.6023 233.53 81.6938ZM234.621 82.0274C235.151 82.3152 235.443 82.8254 235.443 83.4664C235.443 84.3887 234.815 85.0624 233.956 85.0624C233.103 85.0624 232.47 84.3822 232.47 83.4664C232.47 82.2694 233.64 81.4845 234.621 82.0274Z" fill="black"/>
<path d="M5.03895 96.7184C3.29632 97.0781 2.23003 98.8049 2.65655 100.564C2.86372 101.421 3.29023 102.043 3.9361 102.461C4.46011 102.795 4.87444 102.919 5.46547 102.919C6.06259 102.919 6.47083 102.795 7.00092 102.455C7.68944 102.01 8.12815 101.31 8.31703 100.355C8.41452 99.8515 8.41452 99.7861 8.31703 99.2824C8.2561 98.9946 8.14033 98.5956 8.05503 98.4125C7.73819 97.7191 7.1106 97.137 6.39162 96.8688C6.04431 96.738 5.32532 96.6595 5.03895 96.7184Z" fill="black"/>
<path d="M35.1692 97.0913C34.4442 97.3529 33.8531 97.9024 33.5363 98.6219C33.3535 99.0405 33.3413 99.1059 33.3413 99.8189C33.3413 100.532 33.3535 100.597 33.5363 101.016C33.7922 101.598 34.2736 102.115 34.8158 102.389C35.2058 102.586 35.2667 102.599 35.9309 102.599C36.595 102.599 36.656 102.586 37.0459 102.389C37.5882 102.115 38.0695 101.598 38.3255 101.016C38.5082 100.597 38.5204 100.532 38.5204 99.8189C38.5204 99.1059 38.5082 99.0405 38.3255 98.6219C38.0695 98.0397 37.5882 97.523 37.0459 97.2483C36.6803 97.0651 36.5585 97.039 36.0223 97.0259C35.6384 97.0128 35.3216 97.039 35.1692 97.0913Z" fill="black"/>
<path d="M65.7566 97.3529C65.0437 97.608 64.5502 98.0724 64.2455 98.7592C64.0688 99.1582 64.0505 99.2563 64.0505 99.8189C64.0505 100.381 64.0688 100.479 64.2455 100.878C64.4892 101.434 64.8914 101.866 65.4093 102.128C65.781 102.317 65.8724 102.337 66.3964 102.337C66.9204 102.337 67.0118 102.317 67.3835 102.128C67.9014 101.866 68.3035 101.434 68.5472 100.878C68.7239 100.479 68.7422 100.381 68.7422 99.8189C68.7422 99.2563 68.7239 99.1582 68.5472 98.7592C68.1573 97.8631 67.3956 97.3268 66.4878 97.2875C66.1953 97.2744 65.9028 97.3006 65.7566 97.3529Z" fill="black"/>
<path d="M96.3135 97.634C95.8626 97.7648 95.3934 98.118 95.1314 98.5301C94.9242 98.8637 94.7292 99.4785 94.7292 99.8187C94.7292 100.159 94.9242 100.774 95.1314 101.107C95.5762 101.801 96.4353 102.206 97.1787 102.056C97.6661 101.958 98.0256 101.761 98.3485 101.415C98.8786 100.852 99.0858 100.074 98.9091 99.315C98.7202 98.4778 98.1414 97.8367 97.3797 97.6274C96.941 97.5097 96.7522 97.5097 96.3135 97.634Z" fill="black"/>
<path d="M126.779 97.9155C126.334 98.0725 125.895 98.4714 125.664 98.9359C125.554 99.1517 125.53 99.3087 125.53 99.8189C125.53 100.525 125.621 100.78 126.029 101.212C126.432 101.65 126.669 101.748 127.327 101.748C127.985 101.748 128.223 101.65 128.625 101.212C129.033 100.78 129.125 100.525 129.125 99.8189C129.125 99.1125 129.033 98.8574 128.625 98.4257C128.259 98.0267 127.979 97.9024 127.419 97.8828C127.151 97.8697 126.864 97.8828 126.779 97.9155Z" fill="black"/>
<path d="M157.183 98.2556C155.904 98.877 155.892 100.722 157.153 101.363C158.164 101.879 159.371 101.035 159.377 99.8189C159.377 98.9032 158.646 98.1182 157.793 98.1182C157.586 98.1182 157.354 98.1706 157.183 98.2556Z" fill="black"/>
<path d="M187.801 98.4843C187.326 98.674 186.918 99.2889 186.918 99.8252C186.918 100.126 187.094 100.564 187.326 100.813C187.551 101.061 187.966 101.258 188.258 101.258C188.551 101.258 188.965 101.061 189.19 100.813C189.422 100.564 189.599 100.126 189.599 99.8252C189.599 99.2758 189.19 98.6675 188.691 98.4778C188.368 98.36 188.124 98.36 187.801 98.4843Z" fill="black"/>
<path d="M218.632 98.6742C218.602 98.6872 218.498 98.7134 218.407 98.733C218.2 98.7854 217.895 99.0601 217.767 99.3152C217.657 99.5506 217.645 100.067 217.749 100.283C217.956 100.708 218.303 100.944 218.724 100.944C219.327 100.944 219.772 100.466 219.772 99.8188C219.772 99.2432 219.418 98.7919 218.876 98.6938C218.778 98.6742 218.669 98.6676 218.632 98.6742Z" fill="black"/>
<path d="M248.781 99.0992C248.263 99.4328 248.287 100.27 248.817 100.571C249.189 100.774 249.646 100.643 249.859 100.257C250.286 99.5113 249.475 98.6414 248.781 99.0992Z" fill="black"/>
<path d="M20.1072 109.767C17.8771 109.977 15.8786 111.638 15.0682 113.96C14.599 115.295 14.599 117.047 15.0682 118.382C15.8847 120.723 17.8527 122.346 20.1376 122.575C21.2709 122.686 22.319 122.476 23.3487 121.927C25.2193 120.933 26.4744 118.984 26.6633 116.773C26.9192 113.797 25.2254 111.01 22.5871 110.062C21.8071 109.787 20.9907 109.689 20.1072 109.767ZM22.0691 110.578C23.5985 111.03 24.8902 112.207 25.5666 113.764C25.9504 114.64 26.0236 115.02 26.0297 116.138C26.0297 117.178 25.9809 117.518 25.7067 118.264C25.4691 118.918 25.0974 119.54 24.6343 120.076C24.1225 120.665 23.6168 121.064 22.9405 121.397C22.1118 121.816 21.7767 121.888 20.6982 121.888C19.6258 121.888 19.2846 121.816 18.462 121.404C17.2617 120.802 16.3843 119.867 15.8298 118.578C15.4399 117.688 15.3728 117.329 15.3728 116.171C15.3728 115.013 15.4399 114.654 15.8298 113.764C16.2381 112.822 16.9083 111.959 17.6699 111.403C18.2549 110.971 19.181 110.578 19.8756 110.454C20.2534 110.389 21.7036 110.474 22.0691 110.578Z" fill="black"/>
<path d="M50.1339 110.448C48.9884 110.729 48.2268 111.154 47.4225 111.978C46.6974 112.724 46.2465 113.522 45.9419 114.582C45.7956 115.105 45.7773 115.249 45.7773 116.171C45.7834 117.08 45.7956 117.244 45.9419 117.761C46.5207 119.788 47.9038 121.247 49.7927 121.809C50.1948 121.927 50.4325 121.953 51.1941 121.953C52.0106 121.953 52.1629 121.934 52.6443 121.777C53.6131 121.456 54.3381 120.992 55.0206 120.246C55.6847 119.52 56.0929 118.774 56.3854 117.761C56.5316 117.244 56.5499 117.08 56.5499 116.204C56.5499 115.386 56.5256 115.131 56.4159 114.699C55.8919 112.672 54.5148 111.167 52.6443 110.572C51.9679 110.356 50.7493 110.297 50.1339 110.448ZM52.4432 111.135C52.693 111.213 53.1439 111.409 53.4485 111.579C53.8933 111.821 54.1066 111.998 54.5758 112.508C55.051 113.012 55.2155 113.241 55.4471 113.725C55.8675 114.614 56.0015 115.183 56.0015 116.171C56.0015 117.152 55.8736 117.715 55.4471 118.617C55.2155 119.101 55.051 119.33 54.5758 119.834C54.1066 120.344 53.8933 120.521 53.4425 120.769C52.6077 121.227 52.0837 121.365 51.1636 121.365C50.2436 121.365 49.7196 121.227 48.8848 120.769C48.4339 120.521 48.2207 120.344 47.7515 119.834C47.2762 119.33 47.1117 119.101 46.8863 118.624C46.4963 117.806 46.3501 117.211 46.3196 116.335C46.2709 114.784 46.7766 113.47 47.8368 112.397C48.5619 111.651 49.4637 111.167 50.4203 111.004C50.9382 110.919 51.9192 110.984 52.4432 111.135Z" fill="black"/>
<path d="M80.7638 111.036C79.7524 111.246 78.9359 111.717 78.1743 112.547C77.6868 113.077 77.5711 113.254 77.3091 113.829C76.9069 114.712 76.7911 115.229 76.7911 116.171C76.7911 117.126 76.9069 117.636 77.3151 118.526C77.5893 119.128 77.699 119.291 78.2108 119.84C78.7226 120.39 78.875 120.508 79.4355 120.802C80.2642 121.24 80.7395 121.365 81.6291 121.365C82.5126 121.365 82.9878 121.24 83.8226 120.802C84.3892 120.508 84.5233 120.403 85.0412 119.84C85.553 119.291 85.6688 119.128 85.943 118.526C86.3512 117.636 86.467 117.126 86.467 116.171C86.467 115.216 86.3512 114.706 85.943 113.816C85.6688 113.215 85.5591 113.051 85.0473 112.502C84.5355 111.952 84.3831 111.834 83.8226 111.54C83.4692 111.357 83.0061 111.161 82.7867 111.102C82.1957 110.951 81.3183 110.925 80.7638 111.036ZM83.0244 111.756C84.2735 112.214 85.3215 113.332 85.7419 114.673C85.943 115.334 86.0161 116.38 85.8942 117.041C85.4616 119.422 83.4448 121.031 81.1721 120.809C79.5696 120.652 78.1072 119.409 77.5467 117.747C76.7546 115.412 77.8696 112.75 80.0083 111.847C80.6846 111.566 80.8857 111.534 81.7509 111.553C82.3968 111.566 82.5918 111.599 83.0244 111.756Z" fill="black"/>
<path d="M111.01 111.723C109.523 112.142 108.329 113.437 107.951 115.033C107.366 117.473 108.762 119.998 111.034 120.619C113.307 121.247 115.659 119.749 116.238 117.309C116.823 114.869 115.427 112.345 113.155 111.723C112.533 111.553 111.619 111.553 111.01 111.723ZM113.252 112.24C114.392 112.626 115.306 113.601 115.738 114.876C115.878 115.295 115.903 115.452 115.903 116.171C115.903 116.891 115.878 117.048 115.738 117.466C115.519 118.127 115.239 118.598 114.8 119.075C114.355 119.546 113.91 119.847 113.301 120.083C112.911 120.233 112.759 120.253 112.095 120.253C111.418 120.259 111.284 120.24 110.888 120.083C110.273 119.847 109.834 119.546 109.389 119.075C108.682 118.317 108.329 117.46 108.274 116.367C108.177 114.412 109.407 112.639 111.217 112.148C111.711 112.018 112.722 112.057 113.252 112.24Z" fill="black"/>
<path d="M141.859 112.246C141.201 112.397 140.501 112.783 140.007 113.267C139.66 113.594 139.258 114.281 139.05 114.863C138.898 115.301 138.88 115.438 138.88 116.171C138.88 116.904 138.898 117.041 139.05 117.479C139.471 118.683 140.214 119.481 141.341 119.939C141.756 120.102 141.871 120.122 142.56 120.122C143.249 120.122 143.364 120.102 143.779 119.939C144.906 119.481 145.649 118.683 146.07 117.479C146.222 117.041 146.24 116.904 146.24 116.171C146.24 115.432 146.222 115.308 146.07 114.863C145.503 113.254 144.26 112.273 142.712 112.207C142.377 112.194 141.993 112.214 141.859 112.246ZM143.474 112.75C144.552 113.064 145.442 114.026 145.759 115.216C145.899 115.726 145.899 116.609 145.765 117.119C145.436 118.323 144.571 119.258 143.456 119.605C143.249 119.67 142.889 119.71 142.56 119.71C141.622 119.71 140.866 119.383 140.22 118.683C139.568 117.989 139.264 117.178 139.264 116.171C139.264 115.818 139.3 115.432 139.361 115.21C139.873 113.306 141.683 112.22 143.474 112.75Z" fill="black"/>
<path d="M172.386 112.861C171.88 112.986 171.533 113.162 171.124 113.496C169.388 114.915 169.498 117.715 171.332 119.01C172.331 119.71 173.72 119.71 174.719 119.01C175.658 118.349 176.157 117.362 176.151 116.171C176.145 115.223 175.871 114.477 175.274 113.816C174.549 113.018 173.367 112.626 172.386 112.861ZM174.012 113.352C175.152 113.829 175.883 115.033 175.816 116.322C175.719 118.009 174.427 119.265 172.885 119.167C171.313 119.062 170.143 117.676 170.235 116.021C170.308 114.745 171.021 113.738 172.16 113.313C172.69 113.11 173.476 113.13 174.012 113.352Z" fill="black"/>
<path d="M202.693 113.548C202.138 113.738 201.553 114.241 201.255 114.797C200.822 115.576 200.834 116.773 201.273 117.577C201.438 117.885 201.907 118.382 202.211 118.578C202.924 119.023 204.058 119.023 204.77 118.578C205.075 118.382 205.477 117.957 205.684 117.61C206.147 116.819 206.172 115.602 205.733 114.797C205.55 114.47 205.087 113.967 204.801 113.79C204.222 113.424 203.351 113.326 202.693 113.548ZM204.447 113.947C204.941 114.189 205.343 114.627 205.581 115.177C205.745 115.563 205.77 115.687 205.77 116.171C205.77 116.655 205.745 116.779 205.581 117.165C205.337 117.728 204.941 118.153 204.417 118.415C204.058 118.591 203.942 118.617 203.491 118.617C203.04 118.617 202.924 118.591 202.577 118.415C201.998 118.12 201.706 117.819 201.438 117.237C201.23 116.779 201.212 116.701 201.212 116.178C201.212 115.687 201.236 115.563 201.401 115.183C201.505 114.941 201.687 114.634 201.809 114.49C202.059 114.189 202.638 113.836 203.016 113.751C203.442 113.653 204.027 113.731 204.447 113.947Z" fill="black"/>
<path d="M233.286 114.143C231.879 114.706 231.495 116.655 232.591 117.734C233.012 118.16 233.341 118.29 233.956 118.29C234.358 118.29 234.541 118.258 234.761 118.146C235.169 117.95 235.571 117.532 235.766 117.093C235.912 116.779 235.937 116.642 235.937 116.171C235.937 115.7 235.912 115.563 235.766 115.249C235.571 114.811 235.163 114.385 234.761 114.196C234.34 114 233.706 113.973 233.286 114.143ZM234.736 114.477C235.796 115.046 236.052 116.465 235.272 117.46C235.181 117.571 234.943 117.761 234.736 117.865C233.847 118.343 232.823 117.97 232.378 117.008C232.025 116.256 232.153 115.432 232.707 114.83C233.079 114.438 233.42 114.287 233.962 114.281C234.291 114.274 234.425 114.307 234.736 114.477Z" fill="black"/>
<path d="M5.06937 128.9C4.30773 129.024 3.61312 129.397 3.08302 129.966C2.42496 130.672 2.08984 131.536 2.08984 132.523C2.08984 133.511 2.42496 134.375 3.08302 135.081C3.74107 135.787 4.54536 136.147 5.46542 136.147C6.38547 136.147 7.18976 135.787 7.84781 135.081C8.50587 134.375 8.84099 133.511 8.84099 132.523C8.84099 130.908 7.85391 129.502 6.39766 129.037C6.05035 128.926 5.36183 128.854 5.06937 128.9Z" fill="black"/>
<path d="M35.5349 129.233C35.1876 129.279 34.5965 129.521 34.2431 129.77C33.5424 130.254 33.0794 131.019 32.9027 131.987C32.8113 132.478 32.8113 132.569 32.9027 133.06C33.317 135.316 35.4313 136.461 37.3323 135.454C38.161 135.022 38.7642 134.132 38.9592 133.06C39.0506 132.569 39.0506 132.478 38.9592 131.987C38.7276 130.712 37.9782 129.776 36.8875 129.39C36.5219 129.259 35.9065 129.188 35.5349 129.233Z" fill="black"/>
<path d="M65.9699 129.58C64.7269 129.822 63.8556 130.784 63.6484 132.144C63.4595 133.407 64.2333 134.819 65.3606 135.277C66.3111 135.663 67.2982 135.526 68.072 134.891C69.3698 133.832 69.5343 131.804 68.4254 130.489C67.8587 129.816 66.7863 129.417 65.9699 129.58Z" fill="black"/>
<path d="M96.484 129.914C95.4665 130.064 94.5769 131.026 94.4367 132.131C94.2052 133.904 95.5762 135.375 97.2274 135.127C98.2632 134.976 99.1467 134.028 99.2868 132.916C99.4209 131.889 99.0187 130.895 98.2449 130.345C97.7087 129.966 97.1299 129.822 96.484 129.914Z" fill="black"/>
<path d="M126.974 130.241C125.816 130.443 125.024 131.634 125.207 132.89C125.432 134.427 127.01 135.29 128.308 134.577C129.85 133.74 129.856 131.307 128.314 130.47C128.058 130.326 127.912 130.286 127.419 130.208C127.352 130.195 127.151 130.214 126.974 130.241Z" fill="black"/>
<path d="M157.244 130.62C156.8 130.777 156.361 131.176 156.129 131.64C156.02 131.856 155.995 132.013 155.995 132.524C155.995 133.23 156.087 133.485 156.495 133.917C156.897 134.355 157.135 134.453 157.793 134.453C158.451 134.453 158.688 134.355 159.091 133.917C159.499 133.485 159.59 133.23 159.59 132.524C159.59 131.817 159.499 131.562 159.091 131.13C158.725 130.731 158.445 130.607 157.884 130.587C157.616 130.574 157.33 130.587 157.244 130.62Z" fill="black"/>
<path d="M187.679 130.986C187.362 131.111 186.887 131.64 186.802 131.974C186.717 132.301 186.717 132.746 186.802 133.079C186.887 133.419 187.423 133.989 187.752 134.087C188.374 134.276 188.892 134.139 189.331 133.675C189.763 133.204 189.891 132.654 189.714 131.967C189.629 131.627 189.093 131.058 188.764 130.96C188.447 130.862 187.972 130.875 187.679 130.986Z" fill="black"/>
<path d="M218.187 131.32C217.913 131.47 217.578 131.909 217.529 132.177C217.426 132.785 217.615 133.295 218.066 133.648C218.236 133.773 218.346 133.799 218.724 133.799C219.235 133.799 219.437 133.694 219.747 133.263C219.894 133.053 219.912 132.968 219.912 132.523C219.912 132.079 219.894 131.994 219.747 131.784C219.461 131.385 219.229 131.254 218.785 131.228C218.504 131.215 218.328 131.241 218.187 131.32Z" fill="black"/>
<path d="M248.714 131.673C247.922 132.19 248.263 133.505 249.189 133.505C249.707 133.505 250.103 133.079 250.103 132.523C250.103 131.967 249.707 131.542 249.189 131.542C249.025 131.542 248.836 131.595 248.714 131.673Z" fill="black"/>
<path d="M19.9122 141.491C17.5846 141.785 15.513 143.362 14.4832 145.632C13.9349 146.835 13.685 148.3 13.8069 149.543C14.0811 152.251 15.5495 154.488 17.8101 155.62C18.8459 156.143 20.2412 156.404 21.3258 156.267C24.7318 155.855 27.1995 153.206 27.5834 149.55C27.7113 148.385 27.4676 146.887 26.9802 145.775C25.9383 143.381 23.8605 141.785 21.3989 141.485C20.7774 141.413 20.552 141.413 19.9122 141.491ZM22.2215 142.426C24.4211 143.028 26.121 144.847 26.7182 147.241C26.9314 148.104 26.9436 149.536 26.7425 150.406C26.1698 152.866 24.415 154.75 22.124 155.364C21.3197 155.58 19.9853 155.567 19.1749 155.332C16.9266 154.691 15.2144 152.827 14.6538 150.406C14.4528 149.523 14.465 148.104 14.6843 147.221C15.3302 144.618 17.3226 142.695 19.8208 142.269C20.4179 142.171 21.5634 142.243 22.2215 142.426Z" fill="black"/>
<path d="M50.1887 142.237C46.3805 142.878 44.0103 147.071 45.2229 151.002C46.3013 154.468 49.8292 156.391 53.0647 155.279C55.8736 154.311 57.7198 151.283 57.3847 148.196C57.1836 146.325 56.4037 144.781 55.0815 143.643C53.6983 142.453 51.9374 141.942 50.1887 142.237ZM52.6199 143.054C54.5757 143.656 56.0198 145.206 56.5865 147.313C56.7875 148.039 56.818 149.249 56.6596 150.053C56.1112 152.892 53.8385 154.893 51.1636 154.893C48.0683 154.893 45.558 152.199 45.558 148.876C45.558 146.037 47.4042 143.591 50.0059 142.982C50.7066 142.812 51.9618 142.852 52.6199 143.054Z" fill="black"/>
<path d="M80.7273 142.93C78.6739 143.322 76.974 144.873 76.3403 146.933C76.0844 147.764 75.9991 148.379 76.0417 149.203C76.1148 150.694 76.6876 152.061 77.6808 153.127C79.5696 155.155 82.5309 155.462 84.7548 153.86C86.2233 152.807 87.1311 151.054 87.2165 149.137C87.2896 147.443 86.7046 145.834 85.5896 144.637C84.5416 143.512 83.2864 142.937 81.8119 142.891C81.3915 142.878 80.904 142.891 80.7273 142.93ZM82.2506 143.538C83.2377 143.636 84.2918 144.173 85.0961 144.984C86.6559 146.554 87.0885 149.196 86.1258 151.263C84.6086 154.514 80.6359 155.266 78.1621 152.768C76.6206 151.211 76.1758 148.666 77.0897 146.593C77.8453 144.892 79.3686 143.708 81.0624 143.519C81.4889 143.473 81.5682 143.473 82.2506 143.538Z" fill="black"/>
<path d="M111.089 143.669C110.09 143.918 109.34 144.369 108.615 145.141C107.689 146.142 107.232 147.228 107.177 148.614C107.104 150.23 107.622 151.61 108.701 152.715C109.724 153.762 110.931 154.233 112.369 154.154C113.63 154.089 114.654 153.598 115.574 152.611C116.177 151.957 116.512 151.388 116.798 150.505C116.993 149.909 117 149.85 116.993 148.876C116.993 147.901 116.987 147.836 116.798 147.241C116.518 146.371 116.183 145.802 115.574 145.141C114.958 144.48 114.422 144.121 113.618 143.833C113.112 143.65 112.942 143.623 112.247 143.604C111.711 143.584 111.333 143.61 111.089 143.669ZM113.069 144.232C114.41 144.552 115.647 145.677 116.195 147.077C116.512 147.895 116.603 149.026 116.421 149.922C116.128 151.355 115.08 152.689 113.813 153.252C111.82 154.135 109.621 153.415 108.39 151.479C107.616 150.263 107.452 148.47 107.994 147.084C108.427 145.959 109.31 144.997 110.358 144.493C111.089 144.147 112.229 144.036 113.069 144.232Z" fill="black"/>
<path d="M141.475 144.428C139.989 144.847 138.794 146.142 138.417 147.738C137.832 150.177 139.227 152.702 141.5 153.324C142.066 153.481 142.895 153.494 143.504 153.356C144.693 153.088 145.814 152.153 146.362 150.969C146.697 150.236 146.825 149.654 146.825 148.837C146.825 146.77 145.497 144.945 143.62 144.428C142.999 144.258 142.085 144.258 141.475 144.428ZM143.766 144.971C144.948 145.416 145.862 146.416 146.234 147.666C146.344 148.032 146.368 148.274 146.368 148.909C146.368 149.589 146.344 149.752 146.204 150.171C145.984 150.832 145.704 151.303 145.265 151.78C144.821 152.251 144.382 152.552 143.766 152.787C143.376 152.938 143.224 152.964 142.59 152.964C141.999 152.964 141.774 152.938 141.433 152.82C139.184 152.055 138.094 149.347 139.117 147.077C139.617 145.978 140.616 145.121 141.719 144.853C142.304 144.709 143.218 144.762 143.766 144.971Z" fill="black"/>
<path d="M172.355 145.049C170.43 145.429 169.12 147.456 169.461 149.543C169.802 151.656 171.679 153.075 173.653 152.702C175.737 152.31 177.059 150.092 176.529 147.882C176.06 145.945 174.207 144.683 172.355 145.049ZM173.885 145.514C174.975 145.86 175.834 146.783 176.157 147.954C176.279 148.405 176.285 149.255 176.163 149.759C175.877 150.923 174.993 151.891 173.885 152.238C173.464 152.369 172.672 152.375 172.203 152.244C171.1 151.937 170.174 150.943 169.887 149.759C169.692 148.941 169.802 147.98 170.18 147.214C170.558 146.436 171.38 145.743 172.178 145.514C172.623 145.383 173.47 145.383 173.885 145.514Z" fill="black"/>
<path d="M202.796 145.776C201.328 146.155 200.31 147.784 200.554 149.347C200.664 150.021 200.92 150.577 201.358 151.061C202.553 152.395 204.429 152.402 205.611 151.074C206.208 150.413 206.489 149.635 206.452 148.758C206.416 147.914 206.166 147.3 205.611 146.678C204.862 145.841 203.826 145.507 202.796 145.776ZM204.222 146.142C205.782 146.652 206.562 148.51 205.879 150.073C205.264 151.492 203.692 152.101 202.37 151.44C201.413 150.956 200.853 150.008 200.865 148.869C200.871 147.712 201.419 146.789 202.376 146.305C202.936 146.031 203.68 145.959 204.222 146.142Z" fill="black"/>
<path d="M233.274 146.515C232.829 146.672 232.567 146.848 232.262 147.201C231.647 147.921 231.495 148.863 231.836 149.837C231.927 150.112 232.067 150.328 232.336 150.616C233.731 152.114 236.071 151.185 236.253 149.066C236.406 147.352 234.815 145.991 233.274 146.515ZM234.602 146.789C234.949 146.907 235.071 146.992 235.394 147.332C235.711 147.679 235.79 147.81 235.9 148.183C235.973 148.431 236.028 148.738 236.028 148.876C236.028 149.013 235.973 149.321 235.9 149.569C235.79 149.942 235.711 150.073 235.394 150.42C235.071 150.76 234.949 150.845 234.602 150.962C234.371 151.041 234.084 151.1 233.956 151.1C233.828 151.1 233.542 151.041 233.31 150.962C232.963 150.845 232.841 150.76 232.518 150.42C232.202 150.073 232.122 149.942 232.013 149.569C231.94 149.321 231.885 149.013 231.885 148.876C231.885 148.738 231.94 148.431 232.013 148.183C232.122 147.81 232.202 147.679 232.518 147.332C232.829 146.999 232.969 146.9 233.292 146.789C233.798 146.619 234.09 146.619 234.602 146.789Z" fill="black"/>
<path d="M4.91708 161.108C4.10061 161.245 3.3085 161.683 2.72966 162.311C1.97412 163.135 1.61462 164.084 1.61462 165.228C1.61462 166.373 1.97412 167.321 2.73575 168.146C3.97874 169.5 5.92244 169.761 7.4579 168.787C7.92097 168.486 8.49982 167.871 8.78619 167.354C9.50518 166.059 9.50518 164.404 8.7801 163.089C8.49982 162.592 7.92707 161.971 7.44571 161.663C6.73282 161.206 5.6909 160.977 4.91708 161.108Z" fill="black"/>
<path d="M35.1998 161.539C33.6278 161.899 32.397 163.514 32.397 165.228C32.397 166.955 33.6278 168.564 35.2303 168.924C36.0224 169.1 36.7353 168.996 37.5152 168.59C38.6424 167.995 39.465 166.576 39.465 165.228C39.465 164.293 39.0567 163.272 38.4048 162.573C37.5395 161.644 36.3636 161.264 35.1998 161.539Z" fill="black"/>
<path d="M65.6225 161.925C64.2272 162.331 63.2279 163.711 63.2279 165.228C63.2279 167.073 64.6781 168.63 66.3963 168.63C68.1146 168.63 69.5647 167.073 69.5647 165.228C69.5647 163.364 68.1024 161.814 66.3658 161.833C66.1343 161.833 65.7931 161.879 65.6225 161.925Z" fill="black"/>
<path d="M96.1306 162.311C94.9181 162.664 94.059 163.861 94.059 165.176C94.0651 166.092 94.3088 166.739 94.8815 167.354C95.4421 167.956 96.0636 168.237 96.8618 168.237C97.66 168.237 98.2815 167.956 98.842 167.354C100.097 166.007 99.8961 163.77 98.4277 162.723C97.7757 162.259 96.8679 162.095 96.1306 162.311Z" fill="black"/>
<path d="M126.949 162.618C125.932 162.769 125.042 163.73 124.902 164.836C124.671 166.608 126.042 168.08 127.693 167.831C128.729 167.681 129.612 166.732 129.752 165.62C129.886 164.594 129.484 163.599 128.71 163.05C128.174 162.671 127.595 162.527 126.949 162.618Z" fill="black"/>
<path d="M157.244 163.043C156.793 163.174 156.324 163.528 156.062 163.94C155.855 164.273 155.66 164.888 155.66 165.228C155.66 165.568 155.855 166.183 156.062 166.517C156.507 167.21 157.366 167.616 158.11 167.465C158.597 167.367 158.957 167.171 159.279 166.824C159.81 166.262 160.017 165.483 159.84 164.725C159.651 163.887 159.072 163.246 158.311 163.037C157.872 162.919 157.683 162.919 157.244 163.043Z" fill="black"/>
<path d="M187.649 163.462C187.204 163.626 186.717 164.168 186.583 164.652C186.381 165.392 186.522 165.98 187.027 166.536C187.302 166.837 187.448 166.942 187.704 167.02C188.423 167.249 188.977 167.092 189.489 166.536C189.745 166.255 189.861 166.072 189.928 165.81C190.135 165.065 190.001 164.476 189.489 163.92C189.215 163.619 189.068 163.514 188.813 163.436C188.38 163.299 188.063 163.305 187.649 163.462Z" fill="black"/>
<path d="M218.145 163.848C217.249 164.286 217.042 165.594 217.755 166.32C218.65 167.23 220.125 166.549 220.125 165.228C220.125 164.842 220.009 164.515 219.772 164.234C219.479 163.887 219.15 163.724 218.724 163.724C218.529 163.724 218.285 163.776 218.145 163.848Z" fill="black"/>
<path d="M249.098 164.083C249.067 164.097 248.964 164.123 248.872 164.142C248.665 164.195 248.36 164.469 248.232 164.724C248.123 164.96 248.111 165.477 248.214 165.693C248.421 166.118 248.769 166.353 249.189 166.353C249.792 166.353 250.237 165.876 250.237 165.228C250.237 164.653 249.884 164.201 249.341 164.103C249.244 164.083 249.134 164.077 249.098 164.083Z" fill="black"/>
<path d="M19.7841 173.215C16.3903 173.64 13.5936 176.472 12.9782 180.109C12.8441 180.894 12.8502 182.339 12.9842 183.098C13.5997 186.552 16.0674 189.201 19.2845 189.861C19.9913 190.005 21.3379 190.012 22.069 189.868C25.0729 189.286 27.5224 186.852 28.284 183.706C29.4478 178.899 26.4987 174.058 21.9167 173.267C21.3622 173.175 20.3264 173.149 19.7841 173.215ZM22.4834 174.274C24.9023 174.961 26.846 177.048 27.5102 179.664C27.6564 180.253 27.6686 180.403 27.6686 181.58C27.6686 182.764 27.6564 182.902 27.5041 183.51C27.1994 184.72 26.383 186.225 25.5969 187.016C24.7622 187.86 23.5436 188.592 22.5078 188.874C20.04 189.547 17.4931 188.808 15.7261 186.918C13.6118 184.642 13.0696 181.155 14.3857 178.277C14.7147 177.551 15.3484 176.603 15.7993 176.145C16.762 175.17 17.9745 174.49 19.2662 174.189C20.0888 174 21.6486 174.039 22.4834 174.274Z" fill="black"/>
<path d="M50.5544 174C47.5627 174.261 45.0096 176.59 44.2907 179.716C44.1201 180.455 44.0835 180.789 44.0835 181.646C44.0896 183.693 44.8573 185.623 46.2405 187.049C47.5992 188.455 49.2748 189.181 51.1637 189.181C55.1059 189.181 58.2438 185.812 58.2438 181.58C58.2438 179.553 57.5675 177.754 56.2575 176.295C55.1181 175.02 53.5034 174.17 51.9862 174.026C51.249 173.954 51.0845 173.954 50.5544 174ZM52.7661 174.968C55.0693 175.602 56.8912 177.649 57.3908 180.174C57.5431 180.966 57.5431 182.189 57.3908 182.987C56.8668 185.623 54.9292 187.703 52.4737 188.265C51.7303 188.429 50.5909 188.429 49.8537 188.265C47.7942 187.794 46.0638 186.238 45.2716 184.151C44.6745 182.575 44.6623 180.632 45.2473 179.062C45.8931 177.342 47.3067 175.831 48.8727 175.203C50.0791 174.719 51.5293 174.634 52.7661 174.968Z" fill="black"/>
<path d="M80.3495 174.909C77.3883 175.576 75.2922 178.343 75.2922 181.594C75.2922 185.361 78.1255 188.39 81.6473 188.383C85.1509 188.376 87.9659 185.348 87.9659 181.58C87.9659 178.323 85.8637 175.569 82.8781 174.902C82.1713 174.745 81.0624 174.745 80.3495 174.909ZM83.1219 175.687C85.029 176.243 86.601 177.931 87.1189 179.978C87.2956 180.671 87.3505 181.751 87.2469 182.503C86.9361 184.838 85.2971 186.813 83.1219 187.48C82.7014 187.611 82.4943 187.631 81.6291 187.631C80.8613 187.631 80.5323 187.605 80.2398 187.52C78.1986 186.911 76.6632 185.276 76.1087 183.111C75.9747 182.581 75.9259 181.181 76.0234 180.547C76.4012 178.009 78.3875 175.916 80.7699 175.55C81.4706 175.439 82.476 175.497 83.1219 175.687Z" fill="black"/>
<path d="M111.229 175.628C108.957 176.073 107.305 177.695 106.659 180.115C106.483 180.782 106.464 182.208 106.629 182.902C107.074 184.812 108.256 186.355 109.822 187.075C110.705 187.474 111.126 187.565 112.125 187.559C112.929 187.552 113.1 187.533 113.563 187.382C114.635 187.036 115.33 186.597 116.049 185.826C116.768 185.054 117.176 184.308 117.499 183.157C117.639 182.66 117.657 182.477 117.664 181.613C117.67 180.782 117.645 180.554 117.53 180.115C116.92 177.852 115.501 176.328 113.447 175.752C112.923 175.602 111.698 175.537 111.229 175.628ZM113.526 176.42C115.342 177.008 116.701 178.631 117.03 180.612C117.377 182.666 116.536 184.844 114.94 186.015C113.441 187.121 111.455 187.265 109.84 186.388C107.969 185.374 106.915 183.301 107.11 181.024C107.33 178.519 109.249 176.459 111.577 176.23C112.21 176.171 112.99 176.243 113.526 176.42Z" fill="black"/>
<path d="M141.695 176.446C140.683 176.655 139.867 177.126 139.105 177.957C138.618 178.487 138.502 178.663 138.24 179.239C137.838 180.122 137.722 180.639 137.722 181.581C137.722 182.536 137.838 183.046 138.246 183.935C138.52 184.537 138.63 184.701 139.142 185.25C139.654 185.799 139.806 185.917 140.366 186.212C141.195 186.65 141.67 186.774 142.56 186.774C143.443 186.774 143.919 186.65 144.753 186.212C145.32 185.917 145.454 185.813 145.972 185.25C146.484 184.701 146.6 184.537 146.874 183.935C147.282 183.046 147.398 182.536 147.398 181.581C147.398 180.626 147.282 180.115 146.874 179.226C146.6 178.624 146.49 178.461 145.978 177.911C145.466 177.362 145.314 177.244 144.753 176.95C144.4 176.766 143.937 176.57 143.718 176.511C143.127 176.361 142.249 176.335 141.695 176.446ZM143.955 177.165C145.204 177.623 146.252 178.742 146.673 180.083C146.874 180.743 146.947 181.79 146.825 182.45C146.393 184.831 144.376 186.44 142.103 186.218C140.5 186.061 139.038 184.818 138.478 183.157C137.685 180.822 138.801 178.16 140.939 177.257C141.616 176.976 141.817 176.943 142.682 176.963C143.328 176.976 143.523 177.008 143.955 177.165Z" fill="black"/>
<path d="M172.538 177.205C170.479 177.46 168.931 179.33 168.931 181.574C168.925 185.27 172.873 187.31 175.603 185.014C177.071 183.772 177.547 181.489 176.712 179.651C175.95 177.963 174.281 176.989 172.538 177.205ZM173.787 177.728C173.988 177.767 174.384 177.917 174.665 178.061C176.176 178.84 176.986 180.71 176.596 182.522C176.297 183.896 175.182 185.093 173.903 185.413C172.636 185.727 171.338 185.335 170.436 184.36C169.723 183.602 169.351 182.634 169.364 181.561C169.37 180.894 169.467 180.449 169.747 179.821C170.308 178.559 171.496 177.734 172.873 177.636C173.147 177.623 173.263 177.63 173.787 177.728Z" fill="black"/>
<path d="M202.644 178.081C201.425 178.447 200.536 179.422 200.225 180.73C200.091 181.286 200.134 182.241 200.316 182.791C200.645 183.772 201.431 184.622 202.364 184.988C202.869 185.191 204.027 185.204 204.521 185.021C205.52 184.648 206.33 183.804 206.665 182.791C206.818 182.32 206.885 181.352 206.793 180.887C206.544 179.657 205.745 178.637 204.679 178.205C204.143 177.983 203.162 177.924 202.644 178.081ZM204.789 178.689C205.441 179.036 205.904 179.54 206.221 180.253C206.446 180.756 206.446 180.769 206.446 181.587V182.405L206.19 182.967C205.55 184.354 204.186 185.054 202.796 184.72C201.773 184.472 200.798 183.425 200.566 182.326C200.481 181.921 200.481 181.24 200.566 180.835C200.786 179.782 201.633 178.827 202.662 178.46C202.827 178.408 203.144 178.382 203.594 178.395C204.253 178.415 204.295 178.428 204.789 178.689Z" fill="black"/>
<path d="M233.286 178.859C232.153 179.199 231.336 180.338 231.336 181.58C231.336 183.104 232.537 184.393 233.956 184.393C235.376 184.393 236.576 183.104 236.576 181.58C236.576 179.769 234.895 178.382 233.286 178.859ZM234.962 179.324C235.425 179.566 235.833 180.004 236.065 180.501C236.223 180.861 236.241 180.952 236.241 181.58C236.241 182.208 236.223 182.3 236.065 182.66C235.833 183.157 235.425 183.595 234.962 183.844C234.627 184.014 234.541 184.033 233.956 184.033C233.371 184.033 233.286 184.014 232.951 183.844C232.488 183.595 232.08 183.157 231.854 182.666C231.629 182.176 231.574 181.397 231.72 180.854C231.921 180.128 232.561 179.422 233.225 179.193C233.402 179.128 233.694 179.101 234.054 179.114C234.517 179.128 234.657 179.16 234.962 179.324Z" fill="black"/>
<path d="M4.96583 193.289C2.6078 193.59 0.883458 195.912 1.14546 198.43C1.49277 201.746 4.86225 203.63 7.56758 202.014C9.94998 200.601 10.5471 197.187 8.80448 194.944C7.86614 193.74 6.4038 193.112 4.96583 193.289Z" fill="black"/>
<path d="M35.2059 193.753C33.3962 194.1 31.9705 195.944 31.9705 197.933C31.9705 199.784 33.1708 201.485 34.8647 202.027C35.3704 202.191 36.4915 202.191 36.9973 202.027C38.0453 201.694 38.9958 200.844 39.4589 199.83C39.7452 199.202 39.8915 198.561 39.8915 197.933C39.8915 196.095 38.685 194.375 37.0277 193.851C36.6195 193.72 35.6507 193.668 35.2059 193.753Z" fill="black"/>
<path d="M65.9333 194.139C64.1298 194.433 62.8502 196.003 62.8502 197.933C62.8502 198.423 62.8807 198.665 63.0086 199.084C63.8129 201.766 66.9143 202.636 68.8275 200.713C70.5336 199.006 70.2472 196.003 68.2548 194.669C67.6516 194.257 66.6218 194.028 65.9333 194.139Z" fill="black"/>
<path d="M96.088 194.63C95.5518 194.787 95.0278 195.114 94.6318 195.539C93.3827 196.88 93.3827 198.986 94.6318 200.327C95.8808 201.668 97.8428 201.668 99.0919 200.327C100.335 198.992 100.335 196.873 99.0919 195.539C98.3059 194.695 97.1177 194.335 96.088 194.63Z" fill="black"/>
<path d="M126.901 194.989C125.658 195.231 124.786 196.193 124.579 197.554C124.39 198.816 125.164 200.229 126.291 200.687C127.242 201.073 128.229 200.935 129.003 200.301C130.301 199.241 130.465 197.213 129.356 195.899C128.79 195.225 127.717 194.826 126.901 194.989Z" fill="black"/>
<path d="M157.153 195.467C156.44 195.722 155.947 196.186 155.642 196.873C155.465 197.272 155.447 197.37 155.447 197.933C155.447 198.495 155.465 198.593 155.642 198.992C155.886 199.548 156.288 199.98 156.806 200.242C157.177 200.431 157.269 200.451 157.793 200.451C158.317 200.451 158.408 200.431 158.78 200.242C159.298 199.98 159.7 199.548 159.944 198.992C160.12 198.593 160.139 198.495 160.139 197.933C160.139 197.37 160.12 197.272 159.944 196.873C159.554 195.977 158.792 195.441 157.884 195.401C157.592 195.388 157.299 195.414 157.153 195.467Z" fill="black"/>
<path d="M187.783 195.872C187.332 196.01 187.161 196.114 186.838 196.468C186.089 197.279 186.101 198.606 186.863 199.431C188.106 200.765 190.226 199.823 190.226 197.933C190.226 196.559 188.989 195.513 187.783 195.872Z" fill="black"/>
<path d="M218.114 196.37C216.835 196.991 216.823 198.835 218.084 199.476C219.095 199.993 220.302 199.149 220.308 197.933C220.308 197.017 219.577 196.232 218.724 196.232C218.516 196.232 218.285 196.284 218.114 196.37Z" fill="black"/>
<path d="M248.829 196.723C248.458 196.847 248.171 197.168 248.056 197.586C247.97 197.9 247.97 197.966 248.056 198.286C248.123 198.535 248.22 198.705 248.385 198.862C249.049 199.503 250.072 199.195 250.322 198.28C250.408 197.966 250.408 197.9 250.322 197.586C250.207 197.161 249.92 196.847 249.524 196.716C249.177 196.605 249.177 196.605 248.829 196.723Z" fill="black"/>
<path d="M19.6745 204.938C16.5305 205.331 13.7277 207.64 12.5822 210.76C12.1008 212.087 11.918 213.167 11.9546 214.547C12.0704 219.021 14.9829 222.664 19.1444 223.547C19.8939 223.711 21.4903 223.704 22.2519 223.547C25.9078 222.782 28.6131 219.878 29.326 215.953C29.4722 215.135 29.4783 213.422 29.326 212.617C28.607 208.686 25.8347 205.716 22.2397 205.03C21.6061 204.905 20.3021 204.86 19.6745 204.938ZM22.2824 206.011C26.0967 206.9 28.7167 210.518 28.54 214.645C28.4486 216.816 27.6748 218.707 26.249 220.244C24.6465 221.958 22.6358 222.795 20.3631 222.697C16.7316 222.54 13.7582 219.812 12.9782 215.92C12.8929 215.489 12.8686 215.096 12.8747 214.187C12.8807 213.095 12.8929 212.957 13.0635 212.257C13.4474 210.707 14.1298 209.425 15.1474 208.326C16.3355 207.057 17.7674 206.266 19.4796 205.939C20.0767 205.828 21.6609 205.867 22.2824 206.011Z" fill="black"/>
<path d="M50.2192 205.821C48.8665 206.044 47.7454 206.495 46.7461 207.221C45.0096 208.49 43.8397 210.361 43.3888 212.584C43.3035 213.01 43.2731 213.415 43.2731 214.285C43.2731 215.155 43.3035 215.561 43.3888 215.986C44.0713 219.361 46.4354 221.899 49.5794 222.631C50.3106 222.801 52.0167 222.801 52.7478 222.631C55.8919 221.899 58.256 219.361 58.9384 215.986C59.0968 215.201 59.0968 213.369 58.9384 212.584C58.2621 209.255 55.9528 206.737 52.8697 205.972C52.364 205.841 50.6701 205.749 50.2192 205.821ZM52.5102 206.783C55.4714 207.417 57.732 209.948 58.195 213.154C58.3657 214.318 58.2255 215.835 57.8477 216.902C56.5438 220.617 52.9245 222.651 49.3662 221.676C48.0318 221.31 46.6304 220.368 45.7591 219.25C43.4863 216.339 43.4863 212.231 45.7591 209.321C46.8253 207.953 48.507 206.966 50.2192 206.704C50.7432 206.626 51.9679 206.671 52.5102 206.783Z" fill="black"/>
<path d="M81.0198 206.704C77.5955 207.012 74.8597 209.949 74.5673 213.625C74.3906 215.934 75.1644 218.157 76.7059 219.753C78.0647 221.16 79.7403 221.886 81.6292 221.886C85.5714 221.879 88.7032 218.517 88.7093 214.285C88.7093 211.492 87.3323 208.994 85.0413 207.6C83.9445 206.933 82.3664 206.58 81.0198 206.704ZM82.9818 207.613C85.4069 208.176 87.3384 210.263 87.8502 212.872C88.0086 213.677 88.0147 214.894 87.8563 215.692C87.4176 217.902 85.937 219.793 83.975 220.636C82.5127 221.264 80.703 221.251 79.2346 220.61C77.6504 219.917 76.3525 218.517 75.7189 216.81C75.006 214.913 75.1705 212.572 76.1271 210.851C77.5773 208.268 80.2765 206.986 82.9818 207.613Z" fill="black"/>
<path d="M111.12 207.646C107.311 208.287 104.941 212.48 106.154 216.411C107.232 219.878 110.76 221.801 113.996 220.689C116.804 219.721 118.651 216.692 118.316 213.605C118.114 211.734 117.335 210.191 116.012 209.052C114.629 207.862 112.868 207.352 111.12 207.646ZM113.551 208.464C115.507 209.066 116.951 210.616 117.517 212.722C117.718 213.448 117.749 214.658 117.59 215.463C117.042 218.301 114.769 220.303 112.095 220.303C108.999 220.303 106.489 217.608 106.489 214.285C106.489 211.446 108.335 209 110.937 208.392C111.638 208.222 112.893 208.261 113.551 208.464Z" fill="black"/>
<path d="M141.53 208.562C139.434 209.072 137.96 210.524 137.338 212.696C137.192 213.212 137.174 213.376 137.174 214.252C137.174 215.07 137.198 215.325 137.308 215.757C137.832 217.785 139.191 219.269 141.079 219.891C141.561 220.048 141.713 220.061 142.56 220.067C143.419 220.067 143.553 220.048 144.041 219.891C145.893 219.276 147.209 217.863 147.782 215.875C147.928 215.351 147.946 215.207 147.946 214.285C147.94 213.376 147.928 213.212 147.782 212.696C147.203 210.668 145.802 209.19 143.931 208.653C143.297 208.47 142.091 208.424 141.53 208.562ZM143.84 209.249C144.089 209.327 144.54 209.523 144.845 209.693C145.29 209.935 145.503 210.112 145.972 210.622C146.447 211.126 146.612 211.355 146.837 211.832C147.221 212.637 147.374 213.245 147.404 214.089C147.453 215.554 147.02 216.797 146.076 217.856C145.076 218.995 143.852 219.538 142.408 219.485C141.591 219.452 141.037 219.295 140.275 218.877C139.83 218.635 139.617 218.458 139.148 217.948C138.673 217.444 138.508 217.215 138.277 216.731C137.85 215.835 137.722 215.273 137.722 214.285C137.722 213.297 137.85 212.735 138.277 211.839C138.508 211.355 138.673 211.126 139.148 210.622C139.617 210.112 139.83 209.935 140.275 209.693C140.842 209.379 141.323 209.203 141.859 209.111C142.335 209.033 143.328 209.098 143.84 209.249Z" fill="black"/>
<path d="M171.898 209.504C170.351 209.955 169.187 211.119 168.657 212.748C168.498 213.232 168.486 213.343 168.486 214.285C168.486 215.227 168.498 215.338 168.657 215.822C168.9 216.575 169.266 217.189 169.79 217.758C170.32 218.321 170.893 218.713 171.594 218.975C172.044 219.145 172.148 219.158 173.025 219.158C173.903 219.158 174.006 219.145 174.457 218.975C175.158 218.713 175.731 218.321 176.261 217.758C176.785 217.189 177.15 216.575 177.394 215.822C177.553 215.338 177.565 215.227 177.565 214.285C177.565 213.343 177.553 213.232 177.394 212.748C177.15 211.996 176.785 211.381 176.261 210.812C175.731 210.243 175.152 209.857 174.457 209.602C173.793 209.36 172.556 209.314 171.898 209.504ZM173.885 209.968C174.597 210.119 175.487 210.648 175.993 211.217C176.486 211.787 176.888 212.585 177.053 213.356C177.15 213.814 177.132 214.854 177.023 215.338C176.657 216.888 175.469 218.17 174.031 218.569C173.556 218.7 172.501 218.7 172.02 218.569C170.576 218.17 169.406 216.915 169.034 215.364C168.913 214.841 168.913 213.716 169.034 213.206C169.601 210.897 171.703 209.497 173.885 209.968Z" fill="black"/>
<path d="M202.735 210.334C201.243 210.635 200.048 211.983 199.786 213.664C199.695 214.239 199.695 214.331 199.786 214.92C200.054 216.62 201.236 217.928 202.778 218.242C203.381 218.367 203.625 218.367 204.21 218.242C205.751 217.915 206.927 216.607 207.196 214.92C207.287 214.331 207.287 214.239 207.196 213.651C206.927 211.95 205.745 210.642 204.198 210.328C203.649 210.217 203.332 210.217 202.735 210.334ZM204.307 210.786C205.794 211.204 206.842 212.65 206.842 214.285C206.842 216.267 205.337 217.883 203.491 217.883C202.059 217.883 200.779 216.902 200.298 215.43C200.158 214.998 200.103 214.03 200.201 213.546C200.377 212.624 201.017 211.669 201.779 211.185C202.54 210.707 203.491 210.557 204.307 210.786Z" fill="black"/>
<path d="M233.067 211.302C232.549 211.486 232.189 211.741 231.781 212.218C231.074 213.042 230.855 214.18 231.184 215.247C231.361 215.796 231.476 216.012 231.848 216.431C232.214 216.849 232.543 217.072 233.061 217.261C233.786 217.516 234.566 217.457 235.285 217.085C235.626 216.908 236.211 216.332 236.442 215.933C236.869 215.214 236.991 214.226 236.753 213.396C236.595 212.846 236.454 212.584 236.071 212.146C235.278 211.244 234.145 210.923 233.067 211.302ZM234.596 211.571C235.62 211.858 236.351 212.722 236.534 213.867C236.808 215.6 235.394 217.229 233.743 217.078C232.208 216.941 231.086 215.345 231.391 213.749C231.702 212.166 233.158 211.172 234.596 211.571Z" fill="black"/>
<path d="M4.33823 225.594C2.67481 226.052 1.4501 227.262 0.883445 229.002C0.688466 229.604 0.682373 229.656 0.682373 230.637C0.682373 231.619 0.688466 231.671 0.883445 232.273C1.4562 234.039 2.74184 235.288 4.42962 235.707C4.94144 235.831 5.98945 235.831 6.50127 235.707C8.18906 235.288 9.4747 234.039 10.0475 232.273C10.2424 231.671 10.2485 231.619 10.2485 230.637C10.2485 229.656 10.2424 229.604 10.0475 229.002C9.4747 227.236 8.18906 225.987 6.50127 225.568C5.95899 225.437 4.88051 225.451 4.33823 225.594Z" fill="black"/>
<path d="M34.9804 226.026C33.5912 226.347 32.3665 227.485 31.8303 228.937C31.0808 230.991 31.8059 233.391 33.5485 234.595C35.6019 236.008 38.3072 235.38 39.6173 233.195C41.1223 230.677 40.1169 227.334 37.5151 226.235C36.7718 225.921 35.7725 225.843 34.9804 226.026Z" fill="black"/>
<path d="M65.5433 226.491C64.1967 226.798 62.9963 228.021 62.582 229.493C62.4297 230.036 62.4297 231.239 62.582 231.782C62.8928 232.907 63.6849 233.928 64.6293 234.425C65.8053 235.04 66.9873 235.04 68.1633 234.425C69.1077 233.928 69.8998 232.907 70.2106 231.782C70.3629 231.239 70.3629 230.036 70.2106 229.493C69.8998 228.368 69.1077 227.347 68.1633 226.85C67.3164 226.405 66.4329 226.281 65.5433 226.491Z" fill="black"/>
<path d="M96.1307 226.948C94.5587 227.308 93.3279 228.924 93.3279 230.638C93.3279 232.364 94.5587 233.973 96.1612 234.333C96.9533 234.51 97.6662 234.405 98.4461 234C99.5733 233.404 100.396 231.985 100.396 230.638C100.396 229.702 99.9876 228.682 99.3357 227.982C98.4704 227.053 97.2945 226.674 96.1307 226.948Z" fill="black"/>
<path d="M126.718 227.406C125.262 227.74 124.262 229.061 124.262 230.637C124.262 232.266 125.286 233.561 126.828 233.888C127.285 233.986 127.37 233.986 127.827 233.888C129.368 233.561 130.392 232.266 130.392 230.637C130.392 229.048 129.387 227.733 127.906 227.4C127.394 227.282 127.23 227.282 126.718 227.406Z" fill="black"/>
<path d="M157.031 227.91C156.306 228.172 155.715 228.721 155.398 229.441C155.215 229.859 155.203 229.925 155.203 230.638C155.203 231.35 155.215 231.416 155.398 231.835C155.654 232.417 156.135 232.933 156.678 233.208C157.068 233.404 157.129 233.417 157.793 233.417C158.457 233.417 158.518 233.404 158.908 233.208C159.45 232.933 159.931 232.417 160.187 231.835C160.37 231.416 160.382 231.35 160.382 230.638C160.382 229.925 160.37 229.859 160.187 229.441C159.931 228.858 159.45 228.342 158.908 228.067C158.542 227.884 158.42 227.858 157.884 227.845C157.5 227.831 157.183 227.858 157.031 227.91Z" fill="black"/>
<path d="M187.545 228.4C186.936 228.636 186.503 229.061 186.229 229.702C186.119 229.957 186.095 230.134 186.095 230.637C186.095 231.174 186.119 231.311 186.26 231.632C186.467 232.109 186.887 232.56 187.332 232.783C187.631 232.933 187.759 232.959 188.258 232.959C188.758 232.959 188.886 232.933 189.184 232.783C189.629 232.56 190.05 232.109 190.257 231.632C190.397 231.311 190.421 231.174 190.421 230.637C190.421 230.101 190.397 229.964 190.257 229.643C190.05 229.166 189.623 228.708 189.184 228.492C188.721 228.263 188.002 228.224 187.545 228.4Z" fill="black"/>
<path d="M218.114 228.871C217.657 229.035 217.188 229.558 217.054 230.049C216.932 230.494 216.932 230.781 217.054 231.233C217.249 231.939 218.011 232.534 218.724 232.534C219.656 232.534 220.491 231.638 220.491 230.638C220.491 230.14 220.314 229.709 219.948 229.323C219.43 228.76 218.821 228.61 218.114 228.871Z" fill="black"/>
<path d="M248.732 229.303C248.257 229.493 247.849 230.108 247.849 230.644C247.849 230.945 248.025 231.383 248.257 231.632C248.482 231.88 248.897 232.076 249.189 232.076C249.482 232.076 249.896 231.88 250.121 231.632C250.353 231.383 250.53 230.945 250.53 230.644C250.53 230.095 250.121 229.486 249.622 229.297C249.299 229.179 249.055 229.179 248.732 229.303Z" fill="black"/>
<path d="M19.4917 236.668C18.462 236.806 17.0057 237.303 16.1283 237.819C14.8853 238.552 13.4778 239.899 12.7284 241.083C10.9919 243.831 10.5592 247.173 11.5341 250.319C12.0155 251.869 12.7284 253.092 13.8678 254.322C15.2997 255.853 16.8229 256.729 18.8702 257.2C19.7964 257.416 21.5999 257.416 22.5261 257.2C24.5673 256.736 26.0966 255.853 27.5224 254.316C28.9543 252.785 29.7769 251.143 30.2095 248.952C30.4105 247.958 30.4105 246.022 30.2095 245.028C29.7037 242.483 28.5278 240.41 26.6998 238.833C24.7379 237.146 22.0143 236.328 19.4917 236.668ZM22.1788 237.793C23.897 238.094 25.5056 239.003 26.8217 240.416C27.5955 241.24 28.1317 242.051 28.5582 243.026C29.131 244.321 29.3747 245.538 29.3686 247.055C29.3686 248.56 29.0822 249.855 28.4547 251.183C26.5231 255.258 22.2092 257.233 18.1391 255.912C15.4825 255.042 13.1976 252.589 12.3872 249.737C11.1442 245.328 13.0391 240.639 16.8778 238.624C18.5656 237.741 20.296 237.466 22.1788 237.793Z" fill="black"/>
<path d="M50.3411 237.617C49.421 237.708 48.2328 238.068 47.3554 238.526C44.839 239.821 43.0903 242.293 42.5358 245.322C42.3896 246.14 42.3835 247.853 42.5358 248.658C43.2609 252.602 46.0089 255.539 49.6525 256.258C50.4934 256.422 52.0349 256.409 52.8514 256.219C56.4098 255.415 59.0115 252.622 59.761 248.802C59.9377 247.925 59.9499 246.27 59.7975 245.368C59.1334 241.469 56.3854 238.493 52.7478 237.734C52.2543 237.63 50.859 237.564 50.3411 237.617ZM52.9672 238.774C56.0015 239.579 58.2255 242.051 58.8836 245.355C58.9689 245.786 58.9932 246.179 58.9871 247.088C58.9811 248.18 58.9689 248.318 58.7983 249.018C57.8173 252.975 54.5331 255.604 50.8041 255.408C46.4537 255.186 43.1268 251.281 43.3218 246.63C43.3888 244.995 43.8032 243.641 44.644 242.287C45.8687 240.325 47.7393 239.049 49.9755 238.644C50.7371 238.506 52.1934 238.572 52.9672 238.774Z" fill="black"/>
<path d="M80.715 238.624C77.3212 239.049 74.5245 241.881 73.9091 245.518C73.775 246.303 73.7811 247.749 73.9152 248.507C74.5306 251.961 76.9983 254.61 80.2154 255.271C80.9222 255.414 82.2688 255.421 83 255.277C87.2712 254.446 90.0923 250.09 89.3429 245.485C88.7701 242.006 86.1379 239.245 82.8476 238.676C82.2932 238.585 81.2573 238.558 80.715 238.624ZM83.4143 239.684C85.8332 240.37 87.7769 242.457 88.4411 245.073C88.5873 245.662 88.5995 245.812 88.5995 246.99C88.5995 248.174 88.5873 248.311 88.435 248.919C88.1303 250.129 87.3139 251.634 86.5279 252.425C85.6931 253.269 84.4745 254.002 83.4387 254.283C80.971 254.957 78.424 254.217 76.657 252.327C74.5427 250.051 74.0005 246.565 75.3166 243.687C75.6456 242.961 76.2793 242.012 76.7302 241.554C77.6929 240.58 78.9054 239.899 80.1971 239.598C81.0197 239.409 82.5795 239.448 83.4143 239.684Z" fill="black"/>
<path d="M111.211 239.631C108.408 240.043 106.123 242.189 105.423 245.054C105.094 246.388 105.094 247.533 105.416 248.9C105.898 250.934 107.281 252.733 109.078 253.662C111.01 254.662 113.197 254.662 115.117 253.662C117.298 252.523 118.718 250.319 118.986 247.664C119.205 245.485 118.364 243.124 116.823 241.58C115.702 240.455 114.349 239.795 112.771 239.599C112.131 239.52 111.912 239.527 111.211 239.631ZM113.618 240.534C115.848 241.155 117.578 243.039 118.139 245.459C118.34 246.336 118.328 247.762 118.108 248.645C117.53 250.993 115.823 252.818 113.636 253.446C112.814 253.681 111.491 253.694 110.669 253.478C108.414 252.877 106.684 251.045 106.075 248.625C105.861 247.762 105.849 246.329 106.05 245.459C106.672 242.784 108.676 240.815 111.217 240.383C111.82 240.285 112.966 240.357 113.618 240.534Z" fill="black"/>
<path d="M141.969 240.586C139.41 240.828 137.216 242.954 136.68 245.721C136.552 246.395 136.552 247.585 136.68 248.259C137.216 251.045 139.386 253.132 141.999 253.393C143.133 253.505 144.181 253.295 145.211 252.746C147.081 251.752 148.336 249.802 148.525 247.592C148.781 244.615 147.087 241.829 144.449 240.881C143.669 240.606 142.852 240.508 141.969 240.586ZM143.931 241.397C145.46 241.849 146.752 243.026 147.428 244.583C147.812 245.459 147.885 245.839 147.891 246.957C147.891 247.997 147.843 248.337 147.569 249.083C147.331 249.737 146.959 250.358 146.496 250.895C145.984 251.483 145.479 251.882 144.802 252.216C143.974 252.635 143.639 252.707 142.56 252.707C141.488 252.707 141.146 252.635 140.324 252.223C139.124 251.621 138.246 250.685 137.692 249.397C137.302 248.507 137.235 248.148 137.235 246.99C137.235 245.832 137.302 245.472 137.692 244.583C138.1 243.641 138.77 242.777 139.532 242.221C140.117 241.79 141.043 241.397 141.737 241.273C142.115 241.208 143.565 241.293 143.931 241.397Z" fill="black"/>
<path d="M172.057 241.626C171.587 241.731 171.185 241.894 170.619 242.202C170.162 242.45 169.967 242.614 169.461 243.157C168.961 243.7 168.797 243.922 168.565 244.406C168.09 245.407 167.999 245.812 167.999 246.99C167.999 248.167 168.084 248.573 168.565 249.573C168.797 250.064 168.949 250.273 169.455 250.816C169.961 251.353 170.168 251.529 170.619 251.778C171.551 252.288 171.929 252.386 173.025 252.386C174.128 252.386 174.506 252.288 175.432 251.778C175.883 251.529 176.09 251.353 176.59 250.816C177.09 250.28 177.254 250.057 177.486 249.573C177.961 248.579 178.052 248.174 178.052 246.99C178.052 245.812 177.961 245.407 177.486 244.406C177.254 243.922 177.09 243.7 176.59 243.157C176.084 242.614 175.889 242.45 175.432 242.202C174.549 241.718 174.165 241.613 173.178 241.587C172.709 241.574 172.203 241.593 172.057 241.626ZM174.104 242.254C175.408 242.568 176.596 243.628 177.169 244.988C177.443 245.629 177.553 246.205 177.553 246.99C177.553 247.775 177.443 248.35 177.169 248.991C176.59 250.358 175.432 251.392 174.073 251.745C173.537 251.882 172.514 251.882 171.977 251.745C170.619 251.392 169.461 250.358 168.882 248.991C168.608 248.35 168.498 247.775 168.498 246.99C168.498 245.897 168.76 245.014 169.333 244.157C170.412 242.529 172.239 241.796 174.104 242.254Z" fill="black"/>
<path d="M202.607 242.64C201.157 242.98 200.054 244.053 199.543 245.61C199.396 246.055 199.378 246.199 199.378 246.99C199.378 247.788 199.396 247.925 199.549 248.396C199.993 249.75 200.895 250.725 202.144 251.202C202.632 251.392 202.723 251.405 203.491 251.405C204.222 251.405 204.362 251.385 204.777 251.228C205.709 250.875 206.434 250.287 206.94 249.462C207.756 248.148 207.854 246.441 207.202 245.008C206.385 243.209 204.441 242.209 202.607 242.64ZM204.295 243.098C205.946 243.471 207.208 245.158 207.208 246.99C207.208 249.175 205.526 250.98 203.491 250.98C201.45 250.98 199.774 249.181 199.774 246.99C199.774 245.793 200.341 244.544 201.2 243.85C202.108 243.111 203.198 242.843 204.295 243.098Z" fill="black"/>
<path d="M233.164 243.621C231.726 244.046 230.727 245.426 230.727 246.99C230.727 248.972 232.299 250.561 234.139 250.437C236.503 250.28 237.88 247.663 236.808 245.368C236.595 244.91 236.04 244.275 235.632 244.014C234.943 243.582 233.871 243.412 233.164 243.621ZM234.517 243.948C234.956 244.007 235.626 244.4 236.004 244.812C237.393 246.329 236.985 248.834 235.187 249.783C234.724 250.031 234.718 250.031 233.956 250.031C233.195 250.031 233.189 250.031 232.726 249.783C231.519 249.148 230.898 247.847 231.123 246.44C231.33 245.152 232.354 244.092 233.53 243.929C233.932 243.876 234.005 243.876 234.517 243.948Z" fill="black"/>
<path d="M4.33818 257.756C3.85683 257.867 3.12566 258.188 2.61384 258.515C2.17513 258.796 1.23071 259.81 0.968702 260.281C0.359393 261.393 0.133949 262.348 0.182694 263.597C0.225345 264.585 0.316742 264.997 0.712793 265.86C1.2368 267.018 2.04109 267.882 3.11956 268.444C4.03353 268.922 4.35037 269 5.4654 269C6.58044 269 6.89728 268.922 7.81124 268.444C8.89581 267.882 9.69401 267.018 10.218 265.86C10.6506 264.886 10.7359 264.48 10.7359 263.309C10.7298 262.145 10.6567 261.792 10.218 260.824C9.88289 260.078 9.42591 259.45 8.82879 258.92C8.38399 258.521 7.4091 257.985 6.83635 257.815C6.30625 257.658 4.89265 257.625 4.33818 257.756Z" fill="black"/>
<path d="M34.8037 258.299C32.9209 258.849 31.6353 260.255 31.2088 262.23C31.093 262.78 31.093 263.905 31.2088 264.454C31.5987 266.266 32.7625 267.646 34.4076 268.261C34.9682 268.47 35.017 268.477 35.9309 268.477C36.8449 268.477 36.8936 268.47 37.4542 268.261C39.0993 267.646 40.2631 266.266 40.6531 264.454C40.7018 264.219 40.7445 263.722 40.7445 263.342C40.7445 262.963 40.7018 262.466 40.6531 262.23C40.257 260.418 39.0871 259.025 37.4542 258.43C36.9363 258.24 36.79 258.214 36.0528 258.195C35.3886 258.181 35.1449 258.201 34.8037 258.299Z" fill="black"/>
<path d="M65.8967 258.698C63.5387 258.999 61.8144 261.321 62.0764 263.839C62.3445 266.41 64.4953 268.268 66.8594 267.98C69.254 267.692 70.9845 265.383 70.7164 262.845C70.4483 260.262 68.273 258.397 65.8967 258.698Z" fill="black"/>
<path d="M96.3134 259.221C95.497 259.359 94.7049 259.797 94.126 260.425C93.3705 261.249 93.011 262.198 93.011 263.342C93.011 264.487 93.3705 265.435 94.1321 266.259C95.3751 267.613 97.3127 267.882 98.8543 266.901C99.3173 266.6 99.8962 265.985 100.183 265.468C100.902 264.173 100.902 262.518 100.176 261.203C99.8962 260.706 99.3234 260.085 98.8421 259.777C98.1292 259.32 97.0873 259.091 96.3134 259.221Z" fill="black"/>
<path d="M126.931 259.719C126.17 259.843 125.475 260.216 124.945 260.785C124.287 261.491 123.952 262.355 123.952 263.342C123.952 264.33 124.287 265.193 124.945 265.9C125.603 266.606 126.407 266.966 127.327 266.966C128.247 266.966 129.052 266.606 129.71 265.9C130.368 265.193 130.703 264.33 130.703 263.342C130.703 261.727 129.716 260.32 128.259 259.856C127.912 259.745 127.224 259.673 126.931 259.719Z" fill="black"/>
<path d="M157.068 260.333C155.746 260.719 154.923 261.851 154.905 263.309C154.899 263.983 155.008 264.402 155.337 264.99C155.752 265.73 156.404 266.201 157.293 266.403C157.762 266.508 157.823 266.508 158.292 266.403C159.182 266.201 159.834 265.73 160.248 264.99C160.565 264.421 160.681 263.983 160.681 263.342C160.681 261.295 158.896 259.804 157.068 260.333Z" fill="black"/>
<path d="M187.667 260.824C186.698 261.105 186.052 261.864 185.87 262.95C185.736 263.708 186.01 264.598 186.552 265.174C187.088 265.756 187.917 266.05 188.624 265.906C189.708 265.69 190.446 264.899 190.647 263.735C190.781 262.982 190.506 262.086 189.976 261.517C189.635 261.151 189.324 260.961 188.825 260.824C188.398 260.706 188.087 260.706 187.667 260.824Z" fill="black"/>
<path d="M218.279 261.315C217.706 261.472 217.219 261.903 216.963 262.485C216.634 263.244 216.798 264.219 217.359 264.814C218.108 265.605 219.339 265.605 220.089 264.814C220.216 264.677 220.399 264.395 220.485 264.199C220.814 263.44 220.649 262.466 220.089 261.871C219.638 261.4 218.858 261.158 218.279 261.315Z" fill="black"/>
<path d="M248.702 261.857C248.403 261.962 247.891 262.525 247.8 262.858C247.629 263.473 247.751 263.964 248.184 264.421C248.494 264.762 248.805 264.912 249.189 264.912C249.945 264.912 250.651 264.153 250.651 263.342C250.651 262.93 250.511 262.597 250.194 262.263C249.768 261.799 249.268 261.668 248.702 261.857Z" fill="black"/>
</svg>
